<?xml version="1.0" encoding="UTF-8" standalone="no"?>
<!-- Created with Inkscape (http://www.inkscape.org/) -->

<svg
   width="626"
   height="626"
   viewBox="0 0 200 200"
   version="1.1"
   id="svg5"
   inkscape:version="1.1.2 (b8e25be833, 2022-02-05)"
   sodipodi:docname="new_fun.svg"
   inkscape:export-filename="C:\Users\Vladimir\Projects\UsefulClicker\images\new_fun.png"
   inkscape:export-xdpi="96"
   inkscape:export-ydpi="96"
   xmlns:inkscape="http://www.inkscape.org/namespaces/inkscape"
   xmlns:sodipodi="http://sodipodi.sourceforge.net/DTD/sodipodi-0.dtd"
   xmlns:xlink="http://www.w3.org/1999/xlink"
   xmlns="http://www.w3.org/2000/svg"
   xmlns:svg="http://www.w3.org/2000/svg">
  <sodipodi:namedview
     id="namedview7"
     pagecolor="#ffffff"
     bordercolor="#666666"
     borderopacity="1.0"
     inkscape:pageshadow="2"
     inkscape:pageopacity="0.0"
     inkscape:pagecheckerboard="0"
     inkscape:document-units="mm"
     showgrid="false"
     inkscape:zoom="0.52347032"
     inkscape:cx="604.61881"
     inkscape:cy="567.36741"
     inkscape:window-width="1920"
     inkscape:window-height="1017"
     inkscape:window-x="-8"
     inkscape:window-y="-8"
     inkscape:window-maximized="1"
     inkscape:current-layer="layer1" />
  <defs
     id="defs2">
    <linearGradient
       id="linearGradient62330"
       inkscape:swatch="solid">
      <stop
         style="stop-color:#000700;stop-opacity:1;"
         offset="0"
         id="stop62328" />
    </linearGradient>
    <linearGradient
       id="linearGradient57385"
       inkscape:swatch="gradient">
      <stop
         style="stop-color:#000000;stop-opacity:1;"
         offset="0"
         id="stop57381" />
      <stop
         style="stop-color:#000000;stop-opacity:0;"
         offset="1"
         id="stop57383" />
    </linearGradient>
    <rect
       x="-195.86685"
       y="-41.874982"
       width="149.93945"
       height="93.205606"
       id="rect54101" />
    <rect
       x="289.07246"
       y="104.01205"
       width="163.44751"
       height="90.503994"
       id="rect47253" />
    <rect
       x="17.560476"
       y="86.451576"
       width="572.74169"
       height="182.35879"
       id="rect36207" />
    <linearGradient
       id="linearGradient6432"
       inkscape:swatch="gradient">
      <stop
         style="stop-color:#000000;stop-opacity:1;"
         offset="0"
         id="stop6428" />
      <stop
         style="stop-color:#000000;stop-opacity:0;"
         offset="1"
         id="stop6430" />
    </linearGradient>
    <linearGradient
       id="linearGradient6406"
       inkscape:swatch="solid">
      <stop
         style="stop-color:#000000;stop-opacity:1;"
         offset="0"
         id="stop6404" />
    </linearGradient>
    <rect
       x="493.04415"
       y="-124.27414"
       width="411.99579"
       height="126.97575"
       id="rect4380" />
    <linearGradient
       inkscape:collect="always"
       xlink:href="#linearGradient57385"
       id="linearGradient57389"
       gradientUnits="userSpaceOnUse"
       x1="-191.38672"
       y1="-18.709749"
       x2="-170.42578"
       y2="-18.709749" />
    <linearGradient
       inkscape:collect="always"
       xlink:href="#linearGradient62330"
       id="linearGradient68153"
       gradientUnits="userSpaceOnUse"
       x1="-190.88672"
       y1="-18.709749"
       x2="-170.92578"
       y2="-18.709749" />
  </defs>
  <g
     inkscape:label="Layer 1"
     inkscape:groupmode="layer"
     id="layer1">
    <path
       style="fill:#7f92d1;fill-opacity:0.671196;stroke:#690000;stroke-width:2.3298;stroke-miterlimit:4;stroke-dasharray:none;stroke-opacity:1"
       d="m 124.27314,148.07869 c -0.949,-1.08097 -0.99716,-2.29044 -0.99716,-25.0433 V 99.127924 l 1.24348,-1.36409 c 1.61653,-1.77329 3.77053,-2.24488 5.65387,-1.23782 1.0364,0.55416 5.15105,6.597386 13.77848,20.236416 6.76544,10.69547 12.47743,19.45931 12.69337,19.47522 0.21584,0.0164 0.39259,-8.47921 0.39259,-18.87799 V 98.452764 l 1.2848,-1.32423 c 1.6346,-1.68476 3.12878,-1.67974 4.77407,0.0166 l 1.30033,1.34021 -0.14636,24.333866 -0.14637,24.33389 -1.23574,1.03097 c -1.78821,1.49193 -4.85581,1.35286 -6.76958,-0.30688 -0.84847,-0.73584 -6.81411,-9.74764 -13.25698,-20.02628 l -11.71435,-18.68838 -0.26172,18.8915 c -0.24395,17.60669 -0.32953,18.96868 -1.25884,20.02628 -1.32127,1.5036 -4.01337,1.50307 -5.33388,-9.5e-4 z"
       id="path21212"
       inkscape:export-filename="C:\Users\Vladimir\Projects\UsefulClicker\images\path1916.png"
       inkscape:export-xdpi="96"
       inkscape:export-ydpi="96" />
    <path
       style="fill:#34c3ae;fill-opacity:0.317935;stroke:#690000;stroke-width:2.3298;stroke-miterlimit:4;stroke-dasharray:none;stroke-opacity:1"
       d="m 80.73623,148.37806 c -7.012344,-1.94583 -10.600985,-5.82754 -12.094454,-13.08217 -0.364586,-1.77107 -0.588548,-9.32461 -0.588548,-19.85104 V 98.452764 l 1.343303,-1.3845 c 1.087626,-1.121 1.659122,-1.31941 3.002771,-1.04244 3.293453,0.67889 3.216183,0.24348 3.530039,19.892686 0.31542,19.74553 0.422045,20.42566 3.759198,23.97948 2.079154,2.21417 4.432839,3.00839 9.042257,3.05123 6.527452,0.0607 10.500566,-2.94785 11.736344,-8.8869 0.32908,-1.58151 0.56272,-9.29073 0.56272,-18.56752 0,-10.64076 0.19463,-16.303626 0.59133,-17.200896 0.8731,-1.97507 3.36255,-2.90008 5.0999,-1.89504 2.54061,1.46976 2.66807,2.35511 2.67211,18.557586 0.005,15.89141 -0.39286,20.38037 -2.18015,24.66245 -1.56994,3.76139 -5.43556,7.15624 -9.691275,8.51104 -4.100313,1.30532 -12.526763,1.42985 -16.785545,0.24812 z"
       id="path21436"
       inkscape:export-filename="C:\Users\Vladimir\Projects\UsefulClicker\images\path1916.png"
       inkscape:export-xdpi="96"
       inkscape:export-ydpi="96" />
    <path
       style="fill:#cf5eae;fill-opacity:0.690217;stroke:#690000;stroke-width:2.3298;stroke-miterlimit:4;stroke-dasharray:none;stroke-opacity:1"
       d="m 25.058431,148.18359 -1.235723,-1.03085 -0.163347,-22.57212 c -0.176601,-24.38821 -0.01591,-26.267006 2.319268,-27.182186 0.723015,-0.28333 7.606592,-0.51512 15.296873,-0.51512 11.807886,0 14.16319,0.1305 15.145622,0.83982 1.410976,1.01862 1.507576,2.987826 0.206038,4.201756 -0.831471,0.77557 -2.516421,0.89289 -12.824234,0.89289 H 31.935911 v 8.09246 8.09244 h 9.828859 c 10.653808,0 12.155551,0.36005 12.155551,2.9142 0,2.74713 -1.077947,3.02024 -11.919495,3.02024 h -10.00504 l -0.160694,11.10835 c -0.158306,10.92995 -0.180581,11.12489 -1.396524,12.13868 -1.578378,1.31602 -3.802208,1.31581 -5.38011,-5.6e-4 z"
       id="path24472"
       inkscape:export-filename="C:\Users\Vladimir\Projects\UsefulClicker\images\path1916.png"
       inkscape:export-xdpi="96"
       inkscape:export-ydpi="96" />
    <path
       style="fill:#ff6455;fill-opacity:0.464674;stroke:#690000;stroke-width:2.07416;stroke-miterlimit:4;stroke-dasharray:none;stroke-opacity:1"
       d="m 22.265494,165.95911 c -5.286781,-0.1898 -10.230265,-0.5161 -10.98552,-0.72511 -1.7240003,-0.47708 -6.0355102,-4.83455 -7.0312442,-7.10617 -0.6690979,-1.52646 -0.764684,-5.50576 -0.8844705,-36.82073 l -0.1343,-35.109345 1.4060461,-2.62524 c 1.5690609,-2.929616 3.7139414,-5.141878 6.4095946,-6.610959 1.781677,-0.970984 2.620814,-0.980947 82.622778,-0.980947 h 80.822832 l 2.18802,1.184445 c 2.47739,1.341075 5.07684,4.193264 6.45858,7.086553 0.91515,1.916265 0.93528,2.685058 0.93528,35.692893 0,23.12059 -0.16186,34.5406 -0.51439,36.29663 -0.40552,2.01993 -1.01098,3.12679 -2.8608,5.23 -1.29053,1.46729 -3.27334,3.1306 -4.40622,3.69626 l -2.05979,1.02849 -71.17702,0.0542 c -39.147377,0.0298 -75.50259,-0.10115 -80.789376,-0.29091 z M 172.8277,157.27737 c 0.73821,-0.23353 1.76696,-1.03238 2.28612,-1.77518 0.90755,-1.29853 0.95857,-2.22037 1.32476,-23.93329 0.20948,-12.42048 0.23844,-27.28586 0.0645,-33.034156 l -0.3165,-10.451437 -1.60271,-1.895082 -1.6027,-1.895098 H 93.703764 14.426484 l -1.174033,1.34467 c -2.328481,2.666915 -2.260516,1.614963 -2.293457,35.498633 -0.02787,28.68504 0.04476,32.05251 0.721883,33.45122 1.136188,2.34712 2.281673,2.77735 8.295958,3.11598 8.236324,0.46367 151.298855,0.0647 152.850855,-0.42626 z"
       id="path27192"
       inkscape:export-filename="C:\Users\Vladimir\Projects\UsefulClicker\images\path1916.png"
       inkscape:export-xdpi="96"
       inkscape:export-ydpi="96" />
    <path
       style="fill:#a5ff86;fill-opacity:0.690217;stroke:#690000;stroke-width:1.69121;stroke-miterlimit:4;stroke-dasharray:none;stroke-opacity:1"
       d="m 66.372,188.04486 c -4.642124,-0.20816 -5.158952,-0.30968 -6.570102,-1.29054 -2.105328,-1.4634 -4.099308,-4.05501 -4.792852,-6.22937 -0.360412,-1.12995 -0.580085,-3.21767 -0.580085,-5.51301 0,-3.2633 0.09798,-3.81324 0.839746,-4.71371 1.2325,-1.49618 2.897185,-1.71757 4.16373,-0.55379 0.927941,0.85267 1.063503,1.34342 1.504409,5.44621 0.266511,2.47999 0.654194,4.69029 0.861518,4.91176 1.091226,1.1657 4.486439,1.24246 63.035616,1.42507 56.36262,0.17581 59.82479,0.14685 60.76063,-0.50817 0.54581,-0.38203 1.27769,-1.25106 1.62643,-1.93115 0.5892,-1.14909 0.63406,-5.79172 0.63406,-65.62554 0,-61.867942 -0.0271,-64.441879 -0.68965,-65.740333 -0.79021,-1.54846 -25.33072,-28.16107 -30.08137,-32.621319 l -3.15272,-2.960018 -45.26554,0.126458 -45.265499,0.126458 -1.181963,1.26278 -1.181962,1.262781 -0.224652,33.491521 0.05675,0.112168 -0.904803,1.028419 c -1.112815,1.264851 -2.674194,1.341208 -4.169359,0.203891 l -1.083969,-0.824537 -0.277893,-0.78144 0.0035,-34.160809 1.080512,-2.012344 c 1.246887,-2.3222069 3.44186,-4.5694379 5.625601,-5.7595379 1.520524,-0.828657 1.557007,-0.8292 48.068887,-0.714982 45.1967,0.110993 46.59054,0.136758 48.0401,0.888138 0.95874,0.496969 7.44542,7.1299869 18.13019,18.5392389 14.59941,15.589306 16.78236,18.078437 17.82125,20.32092 l 1.18393,2.555516 v 65.532741 65.53274 l -1.09815,2.28112 c -1.49652,3.10857 -2.44319,4.20907 -5.03802,5.85677 l -2.21736,1.40801 -57.31122,-0.0731 c -31.521171,-0.0402 -59.578527,-0.17476 -62.349686,-0.29902 z"
       id="path27268"
       inkscape:export-filename="C:\Users\Vladimir\Projects\UsefulClicker\images\path1916.png"
       inkscape:export-xdpi="96"
       inkscape:export-ydpi="96"
       sodipodi:nodetypes="sssssssssssscscccccccsscccsssssscccsscsss" />
    <path
       style="fill:#ffffff;fill-opacity:0.690217;stroke:#690000;stroke-width:2.16384;stroke-miterlimit:4;stroke-dasharray:none;stroke-opacity:1"
       d="m 15.789578,156.00176 c -0.536875,-0.1353 -1.470305,-0.7119 -2.074289,-1.28135 l -1.098153,-1.03536 0.0018,-32.22913 c 0.0018,-31.278723 0.03043,-32.277103 0.971622,-33.855655 l 0.969794,-1.626513 79.054129,0.129242 c 75.136079,0.122838 79.097329,0.173401 79.925639,1.020193 0.81608,0.83427 0.88033,2.978733 1.01004,33.710533 l 0.13854,32.81961 -1.27594,1.22581 -1.27592,1.22582 -77.685577,0.0714 c -42.727049,0.0394 -78.124817,-0.0393 -78.661692,-0.1746 z m 147.928972,-6.77448 1.5086,-1.01829 0.32092,-17.51293 c 0.17648,-9.63211 0.32124,-21.03025 0.32165,-25.32923 l 7.2e-4,-7.816326 -1.50182,-1.29222 c -2.65936,-2.288246 -4.59714,-2.279034 -7.28605,0.0346 l -1.46155,1.25761 -0.002,17.299046 -0.002,17.29904 -11.14759,-17.21865 c -6.13036,-9.47023 -11.75451,-17.830796 -12.49728,-18.579006 -2.50043,-2.518717 -6.25762,-2.1784 -9.00857,0.81599 l -1.053,1.14619 0.13964,24.738616 0.13964,24.73863 1.18324,1.28752 c 0.94732,1.03085 1.64198,1.28752 3.48442,1.28752 3.4891,0 4.36154,-0.98588 4.87316,-5.50683 0.23195,-2.0495 0.43135,-9.62184 0.44313,-16.82749 0.0119,-7.2056 0.21347,-13.10113 0.44816,-13.10113 0.23471,0 3.55741,4.99716 7.3838,11.10478 6.08381,9.71088 14.98863,23.3183 15.27394,23.34 0.0544,0.003 0.9773,0.32224 2.05104,0.70689 2.29646,0.82267 4.30214,0.55446 6.38928,-0.85435 z m -132.215998,-0.0655 1.369404,-1.20366 0.244034,-10.64975 0.244036,-10.64976 9.544725,-0.25351 c 11.306672,-0.30033 12.179324,-0.5962 12.166822,-4.12504 -0.01452,-4.10114 -0.84263,-4.41464 -12.516836,-4.73855 l -9.438747,-0.26186 v -6.33731 -6.33729 l 11.509544,-0.29691 c 12.877083,-0.33216 13.579084,-0.51085 14.145939,-3.60066 0.395831,-2.157636 -0.677207,-4.060006 -2.600447,-4.610246 -1.741295,-0.4982 -28.750601,-0.4982 -30.491899,0 -0.734807,0.21023 -1.723145,0.98609 -2.196306,1.72413 -0.786629,1.22699 -0.872583,3.421746 -1.003836,25.632366 l -0.143543,24.29047 1.523176,1.31063 c 2.088872,1.79735 5.663837,1.84739 7.643934,0.10693 z M 99.9813,148.54237 c 5.19138,-2.55122 8.0907,-6.01081 9.5562,-11.40284 0.64424,-2.3704 0.86405,-6.08921 1.05453,-17.84158 0.29243,-18.0398 0.0708,-20.826726 -1.82867,-23.000676 -1.16823,-1.33699 -1.7238,-1.58048 -3.60622,-1.58048 -1.78102,0 -2.49541,0.2762 -3.57852,1.38354 -1.21872,1.24597 -1.38512,1.84147 -1.673492,5.989096 -0.176107,2.53305 -0.340828,10.15312 -0.366047,16.93349 -0.02527,6.80751 -0.283882,13.46291 -0.577419,14.86251 -1.039163,4.95489 -4.561731,7.47444 -10.449959,7.47444 -4.172926,0 -6.889363,-1.13516 -8.779069,-3.66863 -1.765365,-2.3668 -2.077531,-5.34794 -2.592428,-24.75762 -0.262366,-9.89029 -0.603097,-15.597236 -0.972757,-16.292736 -0.600978,-1.13073 -2.901102,-2.173633 -4.793975,-2.173633 -0.621695,0 -1.92063,0.709543 -2.886522,1.576763 l -1.75616,1.57675 0.177809,19.010746 c 0.195207,20.87096 0.29992,21.70808 3.29353,26.32969 1.842599,2.84463 4.533545,4.78055 8.722066,6.2748 2.929526,1.04511 3.949522,1.14273 10.563641,1.01111 7.056563,-0.14044 7.435619,-0.202 10.493462,-1.70474 z"
       id="path33747" />
    <text
       xml:space="preserve"
       transform="scale(0.31948882)"
       id="text47251"
       style="fill:black;fill-opacity:1;line-height:1.25;stroke:none;font-family:sans-serif;font-style:normal;font-weight:normal;font-size:40px;white-space:pre;shape-inside:url(#rect47253)" />
    <text
       xml:space="preserve"
       transform="matrix(2.6625173,0,0,2.7357189,537.33363,93.29602)"
       id="text54099"
       style="font-style:normal;font-weight:normal;font-size:40px;line-height:1.25;font-family:sans-serif;white-space:pre;shape-inside:url(#rect54101);fill:#001b49;fill-opacity:0.897436;stroke:url(#linearGradient68153)"><tspan
         x="-195.86719"
         y="-5.1062338"
         id="tspan68188"><tspan
           style="font-family:'Bauhaus 93';-inkscape-font-specification:'Bauhaus 93, '"
           id="tspan68186">+</tspan></tspan></text>
  </g>
  <g
     inkscape:groupmode="layer"
     id="layer2"
     inkscape:label="Layer 2" />
</svg>
