<?xml version="1.0" encoding="UTF-8" standalone="no"?>
<!-- Created with Inkscape (http://www.inkscape.org/) -->

<svg
   version="1.1"
   id="svg824"
   width="5120"
   height="5120"
   viewBox="0 0 5120 5120"
   sodipodi:docname="vector-star-icon.svg"
   inkscape:version="1.1.2 (b8e25be833, 2022-02-05)"
   xmlns:inkscape="http://www.inkscape.org/namespaces/inkscape"
   xmlns:sodipodi="http://sodipodi.sourceforge.net/DTD/sodipodi-0.dtd"
   xmlns:xlink="http://www.w3.org/1999/xlink"
   xmlns="http://www.w3.org/2000/svg"
   xmlns:svg="http://www.w3.org/2000/svg">
  <defs
     id="defs828">
    <linearGradient
       inkscape:collect="always"
       id="linearGradient13058">
      <stop
         style="stop-color:#fcad00;stop-opacity:0.81960785"
         offset="0"
         id="stop13054" />
      <stop
         style="stop-color:#d6e666;stop-opacity:0.47450981"
         offset="1"
         id="stop13056" />
    </linearGradient>
    <linearGradient
       inkscape:collect="always"
       id="linearGradient4693">
      <stop
         style="stop-color:#00ff00;stop-opacity:1;"
         offset="0"
         id="stop4689" />
      <stop
         style="stop-color:#00ff00;stop-opacity:0;"
         offset="1"
         id="stop4691" />
    </linearGradient>
    <linearGradient
       inkscape:collect="always"
       id="linearGradient2695">
      <stop
         style="stop-color:#00ff00;stop-opacity:1;"
         offset="0"
         id="stop2691" />
      <stop
         style="stop-color:#00ff00;stop-opacity:0;"
         offset="1"
         id="stop2693" />
    </linearGradient>
    <radialGradient
       inkscape:collect="always"
       xlink:href="#linearGradient2695"
       id="radialGradient2697"
       cx="4213.6555"
       cy="1195.8395"
       fx="4213.6555"
       fy="1195.8395"
       r="180.23925"
       gradientTransform="matrix(1,0,0,0.94097115,-264.32255,22.468396)"
       gradientUnits="userSpaceOnUse" />
    <meshgradient
       inkscape:collect="always"
       id="meshgradient4661"
       gradientUnits="userSpaceOnUse"
       x="4356.1704"
       y="1413.9121"
       gradientTransform="translate(-264.32255,-48.120633)">
      <meshrow
         id="meshrow4663">
        <meshpatch
           id="meshpatch4665">
          <stop
             path="c 116.33,0  232.659,0  348.989,0"
             style="stop-color:#ffffff;stop-opacity:1"
             id="stop4667" />
          <stop
             path="c 0,110.695  0,221.391  0,332.086"
             style="stop-color:#800080;stop-opacity:1"
             id="stop4669" />
          <stop
             path="c -116.33,0  -232.659,0  -348.989,0"
             style="stop-color:#ffffff;stop-opacity:1"
             id="stop4671" />
          <stop
             path="c 0,-110.695  0,-221.391  0,-332.086"
             style="stop-color:#800080;stop-opacity:1"
             id="stop4673" />
        </meshpatch>
      </meshrow>
    </meshgradient>
    <meshgradient
       inkscape:collect="always"
       id="meshgradient4675"
       gradientUnits="userSpaceOnUse"
       x="3646.7327"
       y="731.28455"
       gradientTransform="translate(-264.32255,-48.120633)">
      <meshrow
         id="meshrow4677">
        <meshpatch
           id="meshpatch4679">
          <stop
             path="c 114.847,0  229.695,0  344.542,0"
             style="stop-color:#ffffff;stop-opacity:1"
             id="stop4681" />
          <stop
             path="c 0,112.179  0,224.357  0,336.536"
             style="stop-color:#00ff00;stop-opacity:1"
             id="stop4683" />
          <stop
             path="c -114.847,0  -229.695,0  -344.542,0"
             style="stop-color:#ffffff;stop-opacity:1"
             id="stop4685" />
          <stop
             path="c 0,-112.179  0,-224.357  0,-336.536"
             style="stop-color:#00ff00;stop-opacity:1"
             id="stop4687" />
        </meshpatch>
      </meshrow>
    </meshgradient>
    <radialGradient
       inkscape:collect="always"
       xlink:href="#linearGradient4693"
       id="radialGradient4695"
       cx="1428.1646"
       cy="1195.774"
       fx="1428.1646"
       fy="1195.774"
       r="177.70436"
       gradientTransform="matrix(1,0,0,0.95402558,-264.32255,6.854389)"
       gradientUnits="userSpaceOnUse" />
    <radialGradient
       inkscape:collect="always"
       xlink:href="#linearGradient2695"
       id="radialGradient4703"
       cx="1815.9974"
       cy="897.37811"
       fx="1815.9974"
       fy="897.37811"
       r="180.04224"
       gradientTransform="matrix(1,0,0,0.95426345,-264.32255,-7.077655)"
       gradientUnits="userSpaceOnUse" />
    <radialGradient
       inkscape:collect="always"
       xlink:href="#linearGradient13058"
       id="radialGradient12940"
       cx="2552.6101"
       cy="2490.564"
       fx="2552.6101"
       fy="2490.564"
       r="750.59076"
       gradientTransform="matrix(1,0,0,0.99255965,0,18.530659)"
       gradientUnits="userSpaceOnUse" />
  </defs>
  <sodipodi:namedview
     id="namedview826"
     pagecolor="#ffffff"
     bordercolor="#666666"
     borderopacity="1.0"
     inkscape:pageshadow="2"
     inkscape:pageopacity="0.0"
     inkscape:pagecheckerboard="0"
     showgrid="true"
     inkscape:zoom="0.11159029"
     inkscape:cx="2840.749"
     inkscape:cy="3127.5123"
     inkscape:window-width="1920"
     inkscape:window-height="1017"
     inkscape:window-x="-8"
     inkscape:window-y="-8"
     inkscape:window-maximized="1"
     inkscape:current-layer="g830">
    <inkscape:grid
       type="xygrid"
       id="grid12796" />
  </sodipodi:namedview>
  <g
     inkscape:groupmode="layer"
     inkscape:label="Image"
     id="g830">
    <path
       style="fill:#808000;stroke:#000000;stroke-width:6.33663"
       d="m 859.08865,1665.1611 -48.866,-32.3114 -55.6885,10.2208 c -30.62859,5.6215 -57.65713,10.215 -60.06336,10.2079 -2.40625,-0.01 2.58385,-20.4727 11.0891,-45.4792 8.50525,-25.0064 15.46409,-51.0316 15.46409,-57.8337 0,-6.8021 -11.45284,-33.115 -25.45077,-58.473 l -25.45078,-46.1054 60.12789,-2.1994 60.12793,-2.1994 41.0895,-40.7345 c 40.2273,-39.8798 41.2058,-40.4116 46.6364,-25.3465 3.0508,8.4634 11.825,32.4969 19.4983,53.4077 l 13.9513,38.0198 53.7519,24.6506 53.75185,24.6505 -46.04645,33.2189 -46.0465,33.2188 -9.5049,57.6995 -9.505,57.6994 z"
       id="path1354"
       inkscape:export-filename="C:\Users\Vladimir\Projects\UsefulClicker\images\path9542.png"
       inkscape:export-xdpi="9.600872"
       inkscape:export-ydpi="9.600872" />
    <path
       style="fill:url(#radialGradient4695);fill-opacity:1;stroke:#000000;stroke-width:6.33663"
       d="m 1139.2418,1276.0437 c -38.5943,-44.4787 -43.6384,-46.9279 -98.2179,-47.6915 -62.70435,-0.8772 -63.39735,-2.2236 -28.7217,-55.8017 l 30.1955,-46.6557 -14.448,-56.783 c -10.6956,-42.0344 -12.2913,-55.9553 -6.1436,-53.5962 4.5676,1.7528 31.2886,8.1258 59.3796,14.1623 l 51.0749,10.9754 49.3811,-28.7715 49.3812,-28.7715 4.3873,22.9984 c 2.4131,12.6491 4.5517,35.998 4.7525,51.8863 0.4352,34.4262 4.4992,40.3353 55.5907,80.8288 l 39.3838,31.2145 -53.6068,20.7247 c -29.4837,11.3986 -56.0068,23.8872 -58.9403,27.7523 -2.9335,3.8651 -13.4124,26.4053 -23.2864,50.0894 -9.8741,23.684 -19.6084,44.0838 -21.6317,45.3329 -2.0233,1.2492 -19.3619,-15.8031 -38.5302,-37.8939 z"
       id="path1393"
       inkscape:export-filename="C:\Users\Vladimir\Projects\UsefulClicker\images\path9542.png"
       inkscape:export-xdpi="9.600872"
       inkscape:export-ydpi="9.600872" />
    <path
       style="fill:url(#radialGradient4703);fill-opacity:1.0;stroke:#000000;stroke-width:6.33663"
       d="m 1516.3908,969.1539 -24.457,-50.16247 -57.1476,-20.60652 -57.1477,-20.60651 42.3858,-38.79781 42.3858,-38.79781 v -58.72943 -58.72943 l 54.5108,28.99812 54.5108,28.99812 54.3252,-15.74942 c 29.8788,-8.66218 55.6381,-14.4365 57.2428,-12.83181 2.5029,2.5029 -5.7862,53.98214 -15.3266,95.18598 -1.9202,8.29285 8.0933,27.94455 28.9706,56.85553 17.5477,24.30023 31.905,46.06423 31.905,48.36443 0,2.3002 -21.9343,6.23759 -48.7428,8.74976 -26.8086,2.51216 -53.6363,6.41153 -59.6173,8.66527 -5.981,2.25373 -25.6538,22.6324 -43.7174,45.2858 -18.0635,22.6535 -33.4685,41.8367 -34.2331,42.6294 -0.7647,0.7926 -12.396,-21.1319 -25.8473,-48.7212 z"
       id="path1432"
       inkscape:export-filename="C:\Users\Vladimir\Projects\UsefulClicker\images\path9542.png"
       inkscape:export-xdpi="9.600872"
       inkscape:export-ydpi="9.600872" />
    <path
       style="fill:#a02c2c;fill-opacity:1;stroke:#000000;stroke-width:6.33663"
       d="m 1966.3218,792.71635 c -12.4934,-85.38592 -12.0191,-84.53873 -66.4759,-118.72682 l -49.9935,-31.38599 54.2789,-28.5304 54.279,-28.5304 16.7859,-53.68422 16.786,-53.68422 43.164,40.15536 43.164,40.15536 59.5747,-2.60559 c 32.7661,-1.43308 59.5747,-1.69764 59.5747,-0.58792 0,1.10973 -11.3668,24.62514 -25.2596,52.25647 l -25.2596,50.23877 19.6162,51.36957 c 10.7889,28.25325 18.5914,52.3362 17.3388,53.51766 -1.2526,1.18146 -28.4742,-0.88809 -60.4926,-4.599 l -58.2152,-6.74711 -47.2566,35.56818 -47.2566,35.56817 z"
       id="path1471"
       inkscape:export-filename="C:\Users\Vladimir\Projects\UsefulClicker\images\path9542.png"
       inkscape:export-xdpi="9.600872"
       inkscape:export-ydpi="9.600872" />
    <path
       style="fill:#00ff00;stroke:#000000;stroke-width:6.33663"
       d="m 2448.2454,674.21609 4.3559,-59.34181 -36.2958,-38.05242 c -33.7558,-35.3894 -39.8954,-51.47714 -19.6453,-51.47714 4.5946,0 28.3118,-4.50712 52.7051,-10.01581 l 44.3513,-10.01581 29.7822,-47.01389 c 16.3802,-25.85765 30.7714,-47.0139 31.9806,-47.0139 1.2091,0 15.6004,21.15625 31.9806,47.0139 l 29.7821,47.01389 44.3514,10.01581 c 24.3932,5.50869 48.1105,10.01581 52.705,10.01581 19.9609,0 14.042,15.65584 -19.6955,52.09643 l -36.1288,39.02343 4.3046,58.64172 4.3045,58.64172 -55.5652,-22.4057 -55.5652,-22.4057 -56.0317,22.31064 -56.0318,22.31063 z"
       id="path1510"
       inkscape:export-filename="C:\Users\Vladimir\Projects\UsefulClicker\images\path9542.png"
       inkscape:export-xdpi="9.600872"
       inkscape:export-ydpi="9.600872" />
    <path
       style="fill:#00ff00;stroke:#000000;stroke-width:6.33663"
       d="m 3088.8037,783.91018 -43.3093,-32.55054 -58.0768,6.73122 c -31.9423,3.70218 -59.1017,5.76458 -60.3542,4.58312 -1.2526,-1.18146 6.5498,-25.26441 17.3387,-53.51766 l 19.6162,-51.36957 -25.2596,-50.23877 c -13.8927,-27.63133 -25.2595,-51.14674 -25.2595,-52.25647 0,-1.10972 26.8086,-0.84516 59.5747,0.58792 l 59.5747,2.60559 43.164,-40.15536 43.164,-40.15536 16.786,53.68422 16.7859,53.68422 54.5523,28.6707 54.5523,28.6707 -50.364,31.39131 c -55.075,34.32765 -51.184,27.42619 -66.9747,118.79204 -2.2587,13.06931 -5.9281,23.67931 -8.1541,23.5778 -2.226,-0.10151 -23.5365,-14.83232 -47.3566,-32.73511 z"
       id="path1549"
       inkscape:export-filename="C:\Users\Vladimir\Projects\UsefulClicker\images\path9542.png"
       inkscape:export-xdpi="9.600872"
       inkscape:export-ydpi="9.600872" />
    <path
       style="fill:url(#meshgradient4675);fill-opacity:1;stroke:#000000;stroke-width:6.33663"
       d="m 3534.8408,975.6966 c -37.0998,-47.58903 -38.2627,-48.18658 -106.4901,-54.71933 -25.2674,-2.41933 -45.9406,-6.24734 -45.9406,-8.50669 0,-2.25934 14.3572,-23.98991 31.905,-48.29014 20.8772,-28.91098 30.8907,-48.56268 28.9706,-56.85553 -9.5559,-41.27059 -17.8274,-92.68522 -15.3151,-95.19745 1.611,-1.611 26.9496,4.07522 56.308,12.63605 l 53.379,15.56514 55.4455,-28.58237 55.4456,-28.58237 v 58.91219 58.91218 l 41.6456,37.24196 c 22.9051,20.48308 39.2996,39.32292 36.4322,41.86632 -2.8675,2.54342 -25.8022,11.22735 -50.9662,19.29765 -25.164,8.0703 -48.3266,16.31956 -51.4726,18.33169 -3.1459,2.01213 -16.8191,25.7794 -30.3848,52.8161 l -24.6649,49.1577 z"
       id="path1588"
       inkscape:export-filename="C:\Users\Vladimir\Projects\UsefulClicker\images\path9542.png"
       inkscape:export-xdpi="9.600872"
       inkscape:export-ydpi="9.600872" />
    <path
       style="fill:url(#radialGradient2697);fill-opacity:1;stroke:#000000;stroke-width:6.33663"
       d="m 3915.9802,1279.0539 c -10.266,-22.8461 -20.4595,-47.0837 -22.6522,-53.8614 -2.7336,-8.4499 -21.8865,-19.0202 -60.9389,-33.6315 l -56.9522,-21.3084 47.447,-37.874 47.447,-37.8739 0.3651,-32.6988 c 0.2009,-17.9843 2.3395,-43.0481 4.7525,-55.6972 l 4.3873,-22.9984 49.3812,28.7715 49.3812,28.7715 51.0748,-10.9754 c 28.0912,-6.0365 54.812,-12.4095 59.3796,-14.1623 6.1477,-2.3591 4.5521,11.5618 -6.1434,53.5962 l -14.4482,56.783 30.2054,46.6557 c 16.613,25.6606 29.0365,47.8706 27.6079,49.3556 -1.4287,1.485 -28.0496,4.5359 -59.1578,6.7797 l -56.5602,4.0797 -30.5087,33.8659 c -16.7799,18.6262 -33.8597,38.3873 -37.9553,43.9134 -6.2817,8.4758 -10.3662,3.5499 -26.1121,-31.4909 z"
       id="path1627"
       inkscape:export-filename="C:\Users\Vladimir\Projects\UsefulClicker\images\path9542.png"
       inkscape:export-xdpi="9.600872"
       inkscape:export-ydpi="9.600872" />
    <path
       style="fill:url(#meshgradient4661);fill-opacity:1;stroke:#000000;stroke-width:6.33663"
       d="m 4193.862,1640.7378 -7.8084,-57.1396 -47.1029,-33.9688 -47.1028,-33.9689 53.7786,-24.6628 53.7785,-24.6629 13.9514,-38.0198 c 7.6732,-20.9108 16.4475,-44.9443 19.4983,-53.4077 5.4305,-15.0651 6.4091,-14.5333 46.6364,25.3465 l 41.0895,40.7345 60.1279,2.1994 60.1279,2.1994 -25.4508,46.1054 c -13.9979,25.358 -25.4508,51.6709 -25.4508,58.473 0,6.8021 6.9589,32.8273 15.4641,57.8337 8.5053,25.0065 13.4954,45.4721 11.0891,45.4792 -2.4062,0.01 -29.4522,-4.5896 -60.1022,-10.215 l -55.7273,-10.2279 -32.9856,21.8023 c -18.1421,11.9913 -40.4144,26.6257 -49.494,32.5209 l -16.5084,10.7187 z"
       id="path1666"
       inkscape:export-filename="C:\Users\Vladimir\Projects\UsefulClicker\images\path9542.png"
       inkscape:export-xdpi="9.600872"
       inkscape:export-ydpi="9.600872" />
    <path
       style="fill:#00ff00;stroke:#000000;stroke-width:6.33663"
       d="m 4524.5735,2115.4702 -52.292,-24.1634 -54.9362,18.5697 c -30.2149,10.2133 -55.8096,17.6962 -56.877,16.6287 -1.0675,-1.0674 0.832,-18.8741 4.2212,-39.5704 10.8478,-66.2439 9.3267,-72.6043 -28.2621,-118.1749 -39.1854,-47.5063 -43.0492,-41.9423 38.9441,-56.0805 l 45.6347,-7.8688 33.2113,-46.8984 33.2112,-46.8983 14.5615,24.0961 c 8.0089,13.2529 20.8655,35.9642 28.5703,50.4696 13.4363,25.2954 16.2227,26.9569 68.1767,40.6516 29.7924,7.8531 55.434,15.3106 56.9815,16.5722 1.5474,1.2616 -14.7457,20.0376 -36.207,41.7245 l -39.0206,39.4307 -1.8128,57.8375 -1.8128,57.8376 z"
       id="path1705"
       inkscape:export-filename="C:\Users\Vladimir\Projects\UsefulClicker\images\path9542.png"
       inkscape:export-xdpi="9.600872"
       inkscape:export-ydpi="9.600872" />
    <path
       style="fill:#00ff00;stroke:#000000;stroke-width:6.33663"
       d="m 4557.6996,2612.907 -43.6775,-35.8017 -58.8753,4.4141 c -32.3815,2.4277 -58.8753,2.4872 -58.8753,0.1323 0,-2.355 8.5544,-23.7723 19.0099,-47.5941 10.4554,-23.8218 19.0099,-48.0594 19.0099,-53.8614 0,-5.8019 -8.5545,-30.0396 -19.0099,-53.8614 -10.4555,-23.8217 -19.0099,-45.2391 -19.0099,-47.594 0,-2.355 26.4938,-2.2954 58.8753,0.1323 l 58.8753,4.414 43.6775,-35.8017 c 31.0838,-25.4789 44.9237,-33.4326 47.9996,-27.5851 2.3772,4.5192 9.3167,29.0071 15.4212,54.4175 l 11.0992,46.2008 49.9467,28.8092 c 27.4707,15.8451 49.9467,29.7359 49.9467,30.8684 0,1.1326 -22.476,15.0233 -49.9467,30.8684 l -49.9467,28.8093 -11.0992,46.2008 c -6.1045,25.4104 -13.044,49.8982 -15.4212,54.4174 -3.0759,5.8475 -16.9158,-2.1062 -47.9996,-27.5851 z"
       id="path1744"
       inkscape:export-filename="C:\Users\Vladimir\Projects\UsefulClicker\images\path9542.png"
       inkscape:export-xdpi="9.600872"
       inkscape:export-ydpi="9.600872" />
    <path
       style="fill:#00ff00;stroke:#000000;stroke-width:6.33663"
       d="m 4453.9904,3102.1597 c -31.6547,-44.7003 -35.0154,-47.4497 -63.0044,-51.5443 -16.2613,-2.379 -42.9983,-7.1562 -59.4154,-10.6161 l -29.8495,-6.2907 34.6019,-41.9495 c 37.7022,-45.7081 39.2185,-52.0317 28.3665,-118.3014 -3.3892,-20.6963 -5.2887,-38.503 -4.2212,-39.5705 1.0674,-1.0674 26.6621,6.4155 56.877,16.6288 l 54.9362,18.5696 52.292,-24.1634 52.292,-24.1634 1.8128,57.8375 1.8128,57.8376 39.0206,39.4306 c 21.4613,21.6869 37.7544,40.463 36.207,41.7246 -1.5475,1.2616 -27.1891,8.7191 -56.9815,16.5721 -51.954,13.6947 -54.7404,15.3562 -68.1767,40.6517 -7.7048,14.5054 -20.5614,37.2167 -28.5703,50.4696 l -14.5615,24.0961 z"
       id="path1783"
       inkscape:export-filename="C:\Users\Vladimir\Projects\UsefulClicker\images\path9542.png"
       inkscape:export-xdpi="9.600872"
       inkscape:export-ydpi="9.600872" />
    <path
       style="fill:#00ff00;stroke:#000000;stroke-width:6.33663"
       d="m 4232.8547,3585.4852 c -30.0419,-83.3406 -35.3813,-94.4917 -47.0125,-98.1833 -6.9315,-2.1999 -30.995,-12.6067 -53.4744,-23.1261 l -40.8717,-19.1262 46.2491,-33.3653 46.249,-33.3654 9.505,-57.6995 9.5049,-57.6995 48.8661,32.3114 48.866,32.3114 55.6884,-10.2208 c 30.6286,-5.6214 57.6572,-10.215 60.0634,-10.2079 2.4063,0.01 -2.5838,20.4728 -11.0891,45.4792 -8.5052,25.0065 -15.4641,51.0317 -15.4641,57.8338 0,6.8021 11.4177,33.0511 25.3726,58.3312 l 25.3725,45.9637 -60.3399,2.6391 -60.34,2.639 -40.7992,40.4366 c -39.9583,39.6031 -40.9135,40.1194 -46.3461,25.0486 z"
       id="path1822"
       inkscape:export-filename="C:\Users\Vladimir\Projects\UsefulClicker\images\path9542.png"
       inkscape:export-xdpi="9.600872"
       inkscape:export-ydpi="9.600872" />
    <path
       style="fill:#00ff00;stroke:#000000;stroke-width:6.33663"
       d="m 3874.3812,3949.5617 c -2.2277,-16.2526 -4.0503,-41.728 -4.0503,-56.612 0,-26.0766 -1.7276,-28.4409 -47.447,-64.9359 l -47.447,-37.8739 56.4453,-21.3085 56.4453,-21.3084 20.3367,-49.2418 c 11.1851,-27.083 22.1062,-50.3344 24.269,-51.6697 2.1628,-1.3353 19.6155,15.6465 38.7838,37.7373 38.5944,44.4787 43.6384,46.9279 98.2178,47.6914 62.7045,0.8773 63.3975,2.2236 28.7218,55.8018 l -30.1956,46.6556 14.4482,56.783 c 10.6955,42.0345 12.2911,55.9553 6.1434,53.5962 -4.5676,-1.7527 -31.1371,-8.0932 -59.0432,-14.09 l -50.7386,-10.9031 -37.0442,20.8794 c -20.3743,11.4837 -43.0632,24.8101 -50.4197,29.6141 -12.8162,8.3694 -13.5448,7.4991 -17.4257,-20.8155 z"
       id="path1861"
       inkscape:export-filename="C:\Users\Vladimir\Projects\UsefulClicker\images\path9542.png"
       inkscape:export-xdpi="9.600872"
       inkscape:export-ydpi="9.600872" />
    <path
       style="fill:#00ff00;stroke:#000000;stroke-width:6.33663"
       d="m 3590.951,4247.8629 -54.4293,-27.3762 -52.811,15.3537 c -29.0461,8.4445 -54.1291,14.0356 -55.7401,12.4246 -2.5123,-2.5123 5.7592,-53.9269 15.3151,-95.1975 1.9201,-8.2928 -8.0934,-27.9445 -28.9706,-56.8555 -17.5478,-24.3002 -31.905,-46.0308 -31.905,-48.2902 0,-2.2593 20.6732,-6.0873 45.9406,-8.5066 68.2274,-6.5328 69.3903,-7.1303 106.4901,-54.7194 l 34.3042,-44.003 24.6649,49.1576 c 13.5657,27.0368 27.2389,50.804 30.3848,52.8161 3.146,2.0122 26.3086,10.2614 51.4726,18.3317 25.164,8.0703 48.0651,16.7206 50.8913,19.2228 2.8263,2.5023 -12.8569,20.8178 -34.8514,40.7011 l -39.9902,36.1515 -3.1683,59.0827 -3.1683,59.0827 z"
       id="path1900"
       inkscape:export-filename="C:\Users\Vladimir\Projects\UsefulClicker\images\path9542.png"
       inkscape:export-xdpi="9.600872"
       inkscape:export-ydpi="9.600872" />
    <path
       style="fill:#00ff00;stroke:#000000;stroke-width:6.33663"
       d="m 3075.8126,4442.0628 -43.164,-40.1554 -59.5747,2.6056 c -32.7661,1.4331 -59.5747,1.6976 -59.5747,0.5879 0,-1.1097 11.3668,-24.6251 25.2595,-52.2564 l 25.2596,-50.2388 -19.6162,-51.3696 c -10.7889,-28.2532 -18.5913,-52.3362 -17.3387,-53.5176 1.2525,-1.1815 28.3835,0.8776 60.2911,4.5758 l 58.0137,6.724 44.1475,-32.7279 c 24.2811,-18.0003 45.62,-32.7278 47.4197,-32.7278 1.7997,0 5.1203,10.693 7.379,23.7623 15.8101,91.4781 11.9953,84.6725 66.7216,119.0297 l 50.0704,31.4343 -54.279,28.5304 -54.2789,28.5304 -16.7859,53.6842 -16.786,53.6842 z"
       id="path1939"
       inkscape:export-filename="C:\Users\Vladimir\Projects\UsefulClicker\images\path9542.png"
       inkscape:export-xdpi="9.600872"
       inkscape:export-ydpi="9.600872" />
    <path
       style="fill:#00ff00;stroke:#000000;stroke-width:6.33663"
       d="m 2523.4988,4502.0932 -29.7822,-47.0139 -44.3513,-10.0158 c -24.3933,-5.5087 -48.1105,-10.0158 -52.7051,-10.0158 -20.2501,0 -14.1105,-16.0877 19.6453,-51.4771 l 36.2958,-38.0524 -4.3629,-59.4369 -4.363,-59.4369 55.5652,22.4057 55.5652,22.4057 56.0318,-22.3106 56.0318,-22.3107 -4.356,59.3418 -4.356,59.3419 36.2959,38.0524 c 33.7558,35.3894 39.8953,51.4771 19.6452,51.4771 -4.5945,0 -28.3118,4.5071 -52.705,10.0158 l -44.3514,10.0158 -29.7821,47.0139 c -16.3802,25.8577 -30.7715,47.0139 -31.9806,47.0139 -1.2092,0 -15.6004,-21.1562 -31.9806,-47.0139 z"
       id="path1978"
       inkscape:export-filename="C:\Users\Vladimir\Projects\UsefulClicker\images\path9542.png"
       inkscape:export-xdpi="9.600872"
       inkscape:export-ydpi="9.600872" />
    <path
       style="fill:#00ff00;stroke:#000000;stroke-width:6.33663"
       d="m 1974.5518,4427.1269 -15.8797,-52.2772 -54.4099,-28.5304 -54.4098,-28.5304 50.0704,-31.4343 c 54.7263,-34.3572 50.9115,-27.5516 66.7216,-119.0297 2.2587,-13.0693 5.5793,-23.7623 7.379,-23.7623 1.7997,0 23.1386,14.7275 47.4197,32.7278 l 44.1474,32.7279 58.0138,-6.724 c 31.9075,-3.6982 59.0385,-5.7573 60.2911,-4.5758 1.2526,1.1814 -6.5499,25.2644 -17.3388,53.5176 l -19.6162,51.3696 25.2596,50.2388 c 13.8928,27.6313 25.2596,51.1467 25.2596,52.2564 0,1.1097 -26.8086,0.8452 -59.5747,-0.5879 l -59.5747,-2.6056 -41.6516,38.7484 c -22.9084,21.3116 -42.6811,38.7484 -43.9393,38.7484 -1.2582,0 -9.4336,-23.5248 -18.1675,-52.2773 z"
       id="path2017"
       inkscape:export-filename="C:\Users\Vladimir\Projects\UsefulClicker\images\path9542.png"
       inkscape:export-xdpi="9.600872"
       inkscape:export-ydpi="9.600872" />
    <path
       style="fill:#00ff00;stroke:#000000;stroke-width:6.33663"
       d="m 1462.4101,4218.9391 v -58.7294 l -42.3858,-38.7979 -42.3858,-38.7978 56.9817,-20.5466 56.9816,-20.5467 25.0362,-50.5035 25.0361,-50.5036 34.374,44.0926 c 37.1729,47.6828 38.3252,48.2755 106.56,54.809 25.2673,2.4193 45.9406,6.2473 45.9406,8.5066 0,2.2594 -14.3573,23.99 -31.905,48.2902 -20.8773,28.911 -30.8908,48.5627 -28.9706,56.8555 9.5404,41.2039 17.8295,92.6831 15.3266,95.186 -1.6047,1.6047 -27.364,-4.1696 -57.2428,-12.8318 l -54.3252,-15.7494 -54.5108,28.9981 -54.5108,28.9981 z"
       id="path2056"
       inkscape:export-filename="C:\Users\Vladimir\Projects\UsefulClicker\images\path9542.png"
       inkscape:export-xdpi="9.600872"
       inkscape:export-ydpi="9.600872" />
    <path
       style="fill:#00ff00;stroke:#000000;stroke-width:6.33663"
       d="m 1181.7417,3948.5106 -49.3811,-28.7715 -51.0749,10.9755 c -28.091,6.0365 -54.812,12.4095 -59.3796,14.1622 -6.1477,2.3591 -4.552,-11.5617 6.1436,-53.5962 l 14.448,-56.783 -30.1955,-46.6556 c -34.67565,-53.5782 -33.98265,-54.9245 28.7217,-55.8018 54.5795,-0.7635 59.6236,-3.2127 98.2179,-47.6914 19.1683,-22.0908 36.621,-39.0726 38.7838,-37.7373 2.1628,1.3353 13.0838,24.5867 24.269,51.6697 l 20.3366,49.2418 56.4397,21.3063 56.4397,21.3064 -39.5206,31.3237 c -51.2391,40.6118 -55.2919,46.4981 -55.7273,80.9381 -0.2009,15.8883 -2.3394,39.2371 -4.7525,51.8863 l -4.3873,22.9984 z"
       id="path2095"
       inkscape:export-filename="C:\Users\Vladimir\Projects\UsefulClicker\images\path9542.png"
       inkscape:export-xdpi="9.600872"
       inkscape:export-ydpi="9.600872" />
    <path
       style="fill:#00ff00;stroke:#000000;stroke-width:6.33663"
       d="m 830.38085,3559.1847 -39.1739,-39.1738 -60.46402,-2.6445 -60.46401,-2.6445 25.37253,-45.9637 c 13.95489,-25.2801 25.37253,-51.5291 25.37253,-58.3312 0,-6.8021 -6.95884,-32.8273 -15.46409,-57.8338 -8.50525,-25.0064 -13.49535,-45.4721 -11.0891,-45.4792 2.40623,-0.01 29.43477,4.5865 60.06336,10.2079 l 55.6885,10.2208 48.866,-32.3114 48.866,-32.3114 9.505,57.6995 9.5049,57.6995 46.2491,33.3654 46.24905,33.3653 -40.87165,19.1262 c -22.4795,10.5194 -46.608,20.9468 -53.619,23.172 -8.8974,2.8239 -18.0075,18.801 -30.165,52.9026 -9.5797,26.8712 -19.1805,50.9383 -21.335,53.4825 -2.1546,2.5441 -21.5456,-13.0025 -43.0912,-34.5482 z"
       id="path2134"
       inkscape:export-filename="C:\Users\Vladimir\Projects\UsefulClicker\images\path9542.png"
       inkscape:export-xdpi="9.600872"
       inkscape:export-ydpi="9.600872" />
    <path
       style="fill:#ff0000;stroke:#000000;stroke-width:6.33663"
       d="m 594.22134,3098.6044 -27.61507,-50.1066 -54.27629,-14.3075 c -29.85196,-7.869 -55.54238,-15.3396 -57.08983,-16.6012 -1.54744,-1.2616 14.74571,-20.0377 36.207,-41.7246 l 39.02054,-39.4306 1.8128,-57.8376 1.8128,-57.8375 52.29201,24.1634 52.29201,24.1634 54.9362,-18.5696 c 30.21491,-10.2133 55.80954,-17.6962 56.87704,-16.6288 1.0675,1.0675 -0.8321,18.8742 -4.2212,39.5705 -10.85203,66.2697 -9.3358,72.5933 28.3664,118.3014 l 34.6019,41.9495 -29.8494,6.2907 c -16.4172,3.4599 -43.1541,8.2371 -59.41548,10.6161 -27.9649,4.0911 -31.36413,6.8644 -62.76803,51.2105 -18.26108,25.7868 -33.6894,46.8852 -34.28515,46.8852 -0.59577,0 -13.50996,-22.548 -28.69825,-50.1067 z"
       id="path2173"
       inkscape:export-filename="C:\Users\Vladimir\Projects\UsefulClicker\images\path9542.png"
       inkscape:export-xdpi="9.600872"
       inkscape:export-ydpi="9.600872" />
    <path
       style="fill:#c83737;stroke:#000000;stroke-width:6.33663"
       d="m 499.87442,2624.5458 c -3.46251,-13.1744 -9.67202,-37.6369 -13.7989,-54.3609 -7.164,-29.0319 -9.75906,-31.7085 -57.36659,-59.1685 -27.42474,-15.8186 -49.86316,-29.6876 -49.86316,-30.8202 0,-1.1325 22.47602,-15.0233 49.94672,-30.8684 l 49.94673,-28.8092 11.09915,-46.2008 c 6.10453,-25.4104 13.04409,-49.8983 15.42124,-54.4174 3.07589,-5.8476 16.91578,2.1061 47.99962,27.585 l 43.67752,35.8018 58.8753,-4.4141 c 32.38142,-2.4277 58.8753,-2.9975 58.8753,-1.2662 0,1.7313 -9.55737,25.5222 -21.2386,52.8686 l -21.23859,49.7207 21.23859,49.6705 c 11.68123,27.3187 21.2386,51.1096 21.2386,52.8686 0,1.7589 -26.57952,1.2054 -59.06559,-1.2302 l -59.06558,-4.4283 -37.56808,31.1182 c -53.20123,44.0673 -51.92222,43.7136 -59.11368,16.3508 z"
       id="path2251"
       inkscape:export-filename="C:\Users\Vladimir\Projects\UsefulClicker\images\path9542.png"
       inkscape:export-xdpi="9.600872"
       inkscape:export-ydpi="9.600872" />
    <path
       style="fill:#ffff00;stroke:#000000;stroke-width:6.33663"
       d="m 530.92497,2082.0254 v -58.4635 l -38.0198,-37.6231 c -20.91089,-20.6927 -38.0198,-39.1983 -38.0198,-41.1237 0,-1.9253 25.11316,-10.0525 55.80702,-18.0605 l 55.80702,-14.5601 21.27618,-39.1674 c 37.19854,-68.4791 31.96702,-67.3616 69.20126,-14.7823 l 32.97579,46.5658 45.63468,7.8688 c 82.67103,14.255 78.76813,8.6534 39.22333,56.2954 -37.888,45.6459 -39.37601,51.796 -28.5413,117.96 3.3891,20.6963 5.2887,38.503 4.2212,39.5704 -1.0675,1.0675 -26.96585,-6.5181 -57.55197,-16.8569 -50.44573,-17.0517 -57.2128,-17.9695 -72.85473,-9.8807 -9.48398,4.9043 -33.42453,16.073 -53.20124,24.8192 l -35.95764,15.9021 z"
       id="path2290"
       inkscape:export-filename="C:\Users\Vladimir\Projects\UsefulClicker\images\path9542.png"
       inkscape:export-xdpi="9.600872"
       inkscape:export-ydpi="9.600872" />
    <g
       id="g6355"
       transform="translate(-961.3523,3639.8002)"
       inkscape:export-filename="C:\Users\Vladimir\Projects\UsefulClicker\images\path9542.png"
       inkscape:export-xdpi="9.600872"
       inkscape:export-ydpi="9.600872">
      <path
         d="m 3623.4039,-466.12587 -245.928,-162.613 -280.264,51.4382 c -154.144,28.2914 -290.171,51.409 -302.281,51.3733 -12.11,-0.0505 13.0037,-103.033 55.8082,-228.883 42.8043,-125.85 77.8261,-256.82703 77.8261,-291.06003 0,-34.2329 -57.6388,-166.658 -128.086,-294.277 l -128.086,-232.035 302.606,-11.0689 302.606,-11.0689 206.791,-205.005 c 202.452,-200.703 207.376,-203.379 234.707,-127.561 15.3538,42.5938 59.5117,163.547 98.1291,268.785 l 70.2127,191.342 270.5173,124.0594 270.5176,124.0589 -231.7386,167.181 -231.7384,167.18003 -47.8353,290.384 -47.8358,290.384 z"
         style="fill:#808000;stroke:#000000;stroke-width:31.8904"
         id="path1354-4" />
      <g
         id="g6009"
         transform="translate(4169.5049,-1368.7129)">
        <path
           sodipodi:type="star"
           style="fill:#ffff00;stroke:#000000"
           inkscape:flatsided="false"
           sodipodi:sides="5"
           sodipodi:cx="-2894.7166"
           sodipodi:cy="-999.34644"
           sodipodi:r1="78.578613"
           sodipodi:r2="39.289307"
           sodipodi:arg1="0.90027477"
           sodipodi:arg2="1.5285933"
           inkscape:rounded="0"
           inkscape:randomized="0"
           d="m -2845.8882,-937.78027 -47.1707,-22.31184 -45.1218,26.20917 6.6433,-51.75674 -38.8698,-34.81422 51.2765,-9.6756 21.0989,-47.7256 25.0473,45.7769 51.9096,5.3182 -35.7963,37.96731 z"
           inkscape:transform-center-x="1.0245177"
           inkscape:transform-center-y="-6.5225556"
           transform="rotate(-146.52643,-1433.973,-404.9251)"
           id="path5931" />
        <path
           sodipodi:type="star"
           style="fill:#ffff00;stroke:#000000"
           inkscape:flatsided="false"
           sodipodi:sides="5"
           sodipodi:cx="-2894.7166"
           sodipodi:cy="-999.34644"
           sodipodi:r1="78.578613"
           sodipodi:r2="39.289307"
           sodipodi:arg1="0.90027477"
           sodipodi:arg2="1.5285933"
           inkscape:rounded="0"
           inkscape:randomized="0"
           d="m -2845.8882,-937.78027 -47.1707,-22.31184 -45.1218,26.20917 6.6433,-51.75674 -38.8698,-34.81422 51.2765,-9.6756 21.0989,-47.7256 25.0473,45.7769 51.9096,5.3182 -35.7963,37.96731 z"
           inkscape:transform-center-x="1.0245177"
           inkscape:transform-center-y="-6.5225556"
           transform="rotate(-146.52643,-1508.9851,-427.48441)"
           id="path5933" />
        <path
           sodipodi:type="star"
           style="fill:#ffff00;stroke:#000000"
           inkscape:flatsided="false"
           sodipodi:sides="5"
           sodipodi:cx="-2894.7166"
           sodipodi:cy="-999.34644"
           sodipodi:r1="78.578613"
           sodipodi:r2="39.289307"
           sodipodi:arg1="0.90027477"
           sodipodi:arg2="1.5285933"
           inkscape:rounded="0"
           inkscape:randomized="0"
           d="m -2845.8882,-937.78027 -47.1707,-22.31184 -45.1218,26.20917 6.6433,-51.75674 -38.8698,-34.81422 51.2765,-9.6756 21.0989,-47.7256 25.0473,45.7769 51.9096,5.3182 -35.7963,37.96731 z"
           inkscape:transform-center-x="1.0245177"
           inkscape:transform-center-y="-6.5225556"
           transform="rotate(169.59995,-1925.9475,-36.983828)"
           id="path5935" />
        <path
           sodipodi:type="star"
           style="fill:#ffff00;stroke:#000000"
           inkscape:flatsided="false"
           sodipodi:sides="5"
           sodipodi:cx="-2894.7166"
           sodipodi:cy="-999.34644"
           sodipodi:r1="78.578613"
           sodipodi:r2="39.289307"
           sodipodi:arg1="0.90027477"
           sodipodi:arg2="1.5285933"
           inkscape:rounded="0"
           inkscape:randomized="0"
           d="m -2845.8882,-937.78027 -47.1707,-22.31184 -45.1218,26.20917 6.6433,-51.75674 -38.8698,-34.81422 51.2765,-9.6756 21.0989,-47.7256 25.0473,45.7769 51.9096,5.3182 -35.7963,37.96731 z"
           inkscape:transform-center-x="1.0245177"
           inkscape:transform-center-y="-6.5225556"
           transform="rotate(169.59995,-2000.96,-30.156367)"
           id="path5937" />
        <path
           sodipodi:type="star"
           style="fill:#ffff00;stroke:#000000"
           inkscape:flatsided="false"
           sodipodi:sides="5"
           sodipodi:cx="-2894.7166"
           sodipodi:cy="-999.34644"
           sodipodi:r1="78.578613"
           sodipodi:r2="39.289307"
           sodipodi:arg1="0.90027477"
           sodipodi:arg2="1.5285933"
           inkscape:rounded="0"
           inkscape:randomized="0"
           d="m -2845.8882,-937.78027 -47.1707,-22.31184 -45.1218,26.20917 6.6433,-51.75674 -38.8698,-34.81422 51.2765,-9.6756 21.0989,-47.7256 25.0473,45.7769 51.9096,5.3182 -35.7963,37.96731 z"
           inkscape:transform-center-x="1.0245177"
           inkscape:transform-center-y="-6.5225556"
           transform="matrix(-0.984078,0.177731,-0.177731,-0.984078,-4120.73,319.839)"
           id="path5939" />
        <path
           sodipodi:type="star"
           style="fill:#ffff00;stroke:#000000"
           inkscape:flatsided="false"
           sodipodi:sides="5"
           sodipodi:cx="-2894.7166"
           sodipodi:cy="-999.34644"
           sodipodi:r1="78.578613"
           sodipodi:r2="39.289307"
           sodipodi:arg1="0.90027477"
           sodipodi:arg2="1.5285933"
           inkscape:rounded="0"
           inkscape:randomized="0"
           d="m -2845.8882,-937.78027 -47.1707,-22.31184 -45.1218,26.20917 6.6433,-51.75674 -38.8698,-34.81422 51.2765,-9.6756 21.0989,-47.7256 25.0473,45.7769 51.9096,5.3182 -35.7963,37.96731 z"
           inkscape:transform-center-x="1.0245177"
           inkscape:transform-center-y="-6.5225556"
           transform="matrix(-0.985173,0.171553,-0.171553,-0.985173,-4265.4,327.155)"
           id="path5941" />
        <path
           sodipodi:type="star"
           style="fill:#ffff00;stroke:#000000"
           inkscape:flatsided="false"
           sodipodi:sides="5"
           sodipodi:cx="-2894.7166"
           sodipodi:cy="-999.34644"
           sodipodi:r1="78.578613"
           sodipodi:r2="39.289307"
           sodipodi:arg1="0.90027477"
           sodipodi:arg2="1.5285933"
           inkscape:rounded="0"
           inkscape:randomized="0"
           d="m -2845.8882,-937.78027 -47.1707,-22.31184 -45.1218,26.20917 6.6433,-51.75674 -38.8698,-34.81422 51.2765,-9.6756 21.0989,-47.7256 25.0473,45.7769 51.9096,5.3182 -35.7963,37.96731 z"
           inkscape:transform-center-x="1.0245177"
           inkscape:transform-center-y="-6.5225556"
           transform="matrix(0.0570803,-0.998282,0.998282,0.0570803,-208.036,-2003.04)"
           id="path5943" />
        <path
           sodipodi:type="star"
           style="fill:#ffff00;stroke:#000000"
           inkscape:flatsided="false"
           sodipodi:sides="5"
           sodipodi:cx="-2894.7166"
           sodipodi:cy="-999.34644"
           sodipodi:r1="78.578613"
           sodipodi:r2="39.289307"
           sodipodi:arg1="0.90027477"
           sodipodi:arg2="1.5285933"
           inkscape:rounded="0"
           inkscape:randomized="0"
           d="m -2845.8882,-937.78027 -47.1707,-22.31184 -45.1218,26.20917 6.6433,-51.75674 -38.8698,-34.81422 51.2765,-9.6756 21.0989,-47.7256 25.0473,45.7769 51.9096,5.3182 -35.7963,37.96731 z"
           inkscape:transform-center-x="1.0245177"
           inkscape:transform-center-y="-6.5225556"
           transform="matrix(0.291476,-0.956574,0.956574,0.291476,464.451,-1792)"
           id="path5945" />
        <path
           sodipodi:type="star"
           style="fill:#ffff00;stroke:#000000"
           inkscape:flatsided="false"
           sodipodi:sides="5"
           sodipodi:cx="-2894.7166"
           sodipodi:cy="-999.34644"
           sodipodi:r1="78.578613"
           sodipodi:r2="39.289307"
           sodipodi:arg1="0.90027477"
           sodipodi:arg2="1.5285933"
           inkscape:rounded="0"
           inkscape:randomized="0"
           d="m -2845.8882,-937.78027 -47.1707,-22.31184 -45.1218,26.20917 6.6433,-51.75674 -38.8698,-34.81422 51.2765,-9.6756 21.0989,-47.7256 25.0473,45.7769 51.9096,5.3182 -35.7963,37.96731 z"
           inkscape:transform-center-x="1.0245177"
           inkscape:transform-center-y="-6.5225556"
           transform="matrix(0.299144,-0.954197,0.954197,0.299144,530.608,-1920.1)"
           id="path5947" />
        <path
           sodipodi:type="star"
           style="fill:#ffff00;stroke:#000000"
           inkscape:flatsided="false"
           sodipodi:sides="5"
           sodipodi:cx="-2894.7166"
           sodipodi:cy="-999.34644"
           sodipodi:r1="78.578613"
           sodipodi:r2="39.289307"
           sodipodi:arg1="0.90027477"
           sodipodi:arg2="1.5285933"
           inkscape:rounded="0"
           inkscape:randomized="0"
           d="m -2845.8882,-937.78027 -47.1707,-22.31184 -45.1218,26.20917 6.6433,-51.75674 -38.8698,-34.81422 51.2765,-9.6756 21.0989,-47.7256 25.0473,45.7769 51.9096,5.3182 -35.7963,37.96731 z"
           inkscape:transform-center-x="1.0245177"
           inkscape:transform-center-y="-6.5225556"
           transform="matrix(0.242086,-0.970248,0.970248,0.242086,422.435,-2168.29)"
           id="path5949" />
        <path
           sodipodi:type="star"
           style="fill:#ffff00;stroke:#000000"
           inkscape:flatsided="false"
           sodipodi:sides="5"
           sodipodi:cx="-2894.7166"
           sodipodi:cy="-999.34644"
           sodipodi:r1="78.578613"
           sodipodi:r2="39.289307"
           sodipodi:arg1="0.90027477"
           sodipodi:arg2="1.5285933"
           inkscape:rounded="0"
           inkscape:randomized="0"
           d="m -2845.8882,-937.78027 -47.1707,-22.31184 -45.1218,26.20917 6.6433,-51.75674 -38.8698,-34.81422 51.2765,-9.6756 21.0989,-47.7256 25.0473,45.7769 51.9096,5.3182 -35.7963,37.96731 z"
           inkscape:transform-center-x="1.0245177"
           inkscape:transform-center-y="-6.5225556"
           transform="matrix(-0.357862,-0.933753,0.933753,-0.357862,-1358.43,-2811.59)"
           id="path5951" />
        <path
           sodipodi:type="star"
           style="fill:#ffff00;stroke:#000000"
           inkscape:flatsided="false"
           sodipodi:sides="5"
           sodipodi:cx="-2894.7166"
           sodipodi:cy="-999.34644"
           sodipodi:r1="78.578613"
           sodipodi:r2="39.289307"
           sodipodi:arg1="0.90027477"
           sodipodi:arg2="1.5285933"
           inkscape:rounded="0"
           inkscape:randomized="0"
           d="m -2845.8882,-937.78027 -47.1707,-22.31184 -45.1218,26.20917 6.6433,-51.75674 -38.8698,-34.81422 51.2765,-9.6756 21.0989,-47.7256 25.0473,45.7769 51.9096,5.3182 -35.7963,37.96731 z"
           inkscape:transform-center-x="1.0245177"
           inkscape:transform-center-y="-6.5225556"
           transform="matrix(-0.448952,-0.89355,0.89355,-0.448952,-1724.52,-2923.42)"
           id="path5953" />
        <path
           sodipodi:type="star"
           style="fill:#ffff00;stroke:#000000"
           inkscape:flatsided="false"
           sodipodi:sides="5"
           sodipodi:cx="-2894.7166"
           sodipodi:cy="-999.34644"
           sodipodi:r1="78.578613"
           sodipodi:r2="39.289307"
           sodipodi:arg1="0.90027477"
           sodipodi:arg2="1.5285933"
           inkscape:rounded="0"
           inkscape:randomized="0"
           d="m -2845.8882,-937.78027 -47.1707,-22.31184 -45.1218,26.20917 6.6433,-51.75674 -38.8698,-34.81422 51.2765,-9.6756 21.0989,-47.7256 25.0473,45.7769 51.9096,5.3182 -35.7963,37.96731 z"
           inkscape:transform-center-x="1.0245177"
           inkscape:transform-center-y="-6.5225556"
           transform="rotate(-118.8992,-1852.9279,-954.44888)"
           id="path5955" />
        <path
           sodipodi:type="star"
           style="fill:#ffff00;stroke:#000000"
           inkscape:flatsided="false"
           sodipodi:sides="5"
           sodipodi:cx="-2894.7166"
           sodipodi:cy="-999.34644"
           sodipodi:r1="78.578613"
           sodipodi:r2="39.289307"
           sodipodi:arg1="0.90027477"
           sodipodi:arg2="1.5285933"
           inkscape:rounded="0"
           inkscape:randomized="0"
           d="m -2845.8882,-937.78027 -47.1707,-22.31184 -45.1218,26.20917 6.6433,-51.75674 -38.8698,-34.81422 51.2765,-9.6756 21.0989,-47.7256 25.0473,45.7769 51.9096,5.3182 -35.7963,37.96731 z"
           inkscape:transform-center-x="1.0245177"
           inkscape:transform-center-y="-6.5225556"
           transform="rotate(-118.8992,-1927.9463,-998.72509)"
           id="path5957" />
        <path
           sodipodi:type="star"
           style="fill:#ffff00;stroke:#000000"
           inkscape:flatsided="false"
           sodipodi:sides="5"
           sodipodi:cx="-2894.7166"
           sodipodi:cy="-999.34644"
           sodipodi:r1="78.578613"
           sodipodi:r2="39.289307"
           sodipodi:arg1="0.90027477"
           sodipodi:arg2="1.5285933"
           inkscape:rounded="0"
           inkscape:randomized="0"
           d="m -2845.8882,-937.78027 -47.1707,-22.31184 -45.1218,26.20917 6.6433,-51.75674 -38.8698,-34.81422 51.2765,-9.6756 21.0989,-47.7256 25.0473,45.7769 51.9096,5.3182 -35.7963,37.96731 z"
           inkscape:transform-center-x="1.0245177"
           inkscape:transform-center-y="-6.5225556"
           transform="rotate(-2.0948617,19703.586,-41224.322)"
           id="path5959" />
        <path
           sodipodi:type="star"
           style="fill:#ffff00;stroke:#000000"
           inkscape:flatsided="false"
           sodipodi:sides="5"
           sodipodi:cx="-2894.7166"
           sodipodi:cy="-999.34644"
           sodipodi:r1="78.578613"
           sodipodi:r2="39.289307"
           sodipodi:arg1="0.90027477"
           sodipodi:arg2="1.5285933"
           inkscape:rounded="0"
           inkscape:randomized="0"
           d="m -2845.8882,-937.78027 -47.1707,-22.31184 -45.1218,26.20917 6.6433,-51.75674 -38.8698,-34.81422 51.2765,-9.6756 21.0989,-47.7256 25.0473,45.7769 51.9096,5.3182 -35.7963,37.96731 z"
           inkscape:transform-center-x="1.0245177"
           inkscape:transform-center-y="-6.5225556"
           transform="rotate(-2.0948617,19628.513,-45327.286)"
           id="path5961" />
        <path
           sodipodi:type="star"
           style="fill:#ffff00;stroke:#000000"
           inkscape:flatsided="false"
           sodipodi:sides="5"
           sodipodi:cx="-2894.7166"
           sodipodi:cy="-999.34644"
           sodipodi:r1="78.578613"
           sodipodi:r2="39.289307"
           sodipodi:arg1="0.90027477"
           sodipodi:arg2="1.5285933"
           inkscape:rounded="0"
           inkscape:randomized="0"
           d="m -2845.8882,-937.78027 -47.1707,-22.31184 -45.1218,26.20917 6.6433,-51.75674 -38.8698,-34.81422 51.2765,-9.6756 21.0989,-47.7256 25.0473,45.7769 51.9096,5.3182 -35.7963,37.96731 z"
           inkscape:transform-center-x="1.0245177"
           inkscape:transform-center-y="-6.5225556"
           transform="rotate(-2.0948617,19553.468,-49430.25)"
           id="path5963" />
        <path
           sodipodi:type="star"
           style="fill:#ffff00;stroke:#000000"
           inkscape:flatsided="false"
           sodipodi:sides="5"
           sodipodi:cx="-2894.7166"
           sodipodi:cy="-999.34644"
           sodipodi:r1="78.578613"
           sodipodi:r2="39.289307"
           sodipodi:arg1="0.90027477"
           sodipodi:arg2="1.5285933"
           inkscape:rounded="0"
           inkscape:randomized="0"
           d="m -2845.8882,-937.78027 -47.1707,-22.31184 -45.1218,26.20917 6.6433,-51.75674 -38.8698,-34.81422 51.2765,-9.6756 21.0989,-47.7256 25.0473,45.7769 51.9096,5.3182 -35.7963,37.96731 z"
           inkscape:transform-center-x="1.0245177"
           inkscape:transform-center-y="-6.5225556"
           transform="rotate(-2.0948617,19478.422,-53533.213)"
           id="path5965" />
        <path
           sodipodi:type="star"
           style="fill:#ffff00;stroke:#000000"
           inkscape:flatsided="false"
           sodipodi:sides="5"
           sodipodi:cx="-2894.7166"
           sodipodi:cy="-999.34644"
           sodipodi:r1="78.578613"
           sodipodi:r2="39.289307"
           sodipodi:arg1="0.90027477"
           sodipodi:arg2="1.5285933"
           inkscape:rounded="0"
           inkscape:randomized="0"
           d="m -2845.8882,-937.78027 -47.1707,-22.31184 -45.1218,26.20917 6.6433,-51.75674 -38.8698,-34.81422 51.2765,-9.6756 21.0989,-47.7256 25.0473,45.7769 51.9096,5.3182 -35.7963,37.96731 z"
           inkscape:transform-center-x="1.0245177"
           inkscape:transform-center-y="-6.5225556"
           transform="rotate(-44.751485,-986.74942,-3148.1089)"
           id="path5967" />
        <path
           sodipodi:type="star"
           style="fill:#ffff00;stroke:#000000"
           inkscape:flatsided="false"
           sodipodi:sides="5"
           sodipodi:cx="-2894.7166"
           sodipodi:cy="-999.34644"
           sodipodi:r1="78.578613"
           sodipodi:r2="39.289307"
           sodipodi:arg1="0.90027477"
           sodipodi:arg2="1.5285933"
           inkscape:rounded="0"
           inkscape:randomized="0"
           d="m -2845.8882,-937.78027 -47.1707,-22.31184 -45.1218,26.20917 6.6433,-51.75674 -38.8698,-34.81422 51.2765,-9.6756 21.0989,-47.7256 25.0473,45.7769 51.9096,5.3182 -35.7963,37.96731 z"
           inkscape:transform-center-x="1.0245177"
           inkscape:transform-center-y="-6.5225556"
           transform="rotate(-44.751485,-1061.7552,-3330.3292)"
           id="path5969" />
        <path
           sodipodi:type="star"
           style="fill:#ffff00;stroke:#000000"
           inkscape:flatsided="false"
           sodipodi:sides="5"
           sodipodi:cx="-2894.7166"
           sodipodi:cy="-999.34644"
           sodipodi:r1="78.578613"
           sodipodi:r2="39.289307"
           sodipodi:arg1="0.90027477"
           sodipodi:arg2="1.5285933"
           inkscape:rounded="0"
           inkscape:randomized="0"
           d="m -2845.8882,-937.78027 -47.1707,-22.31184 -45.1218,26.20917 6.6433,-51.75674 -38.8698,-34.81422 51.2765,-9.6756 21.0989,-47.7256 25.0473,45.7769 51.9096,5.3182 -35.7963,37.96731 z"
           inkscape:transform-center-x="1.0245177"
           inkscape:transform-center-y="-6.5225556"
           transform="matrix(0.711733,-0.702447,0.702447,0.711733,2146.56,-1812.07)"
           id="path5971" />
        <path
           sodipodi:type="star"
           style="fill:#ffff00;stroke:#000000"
           inkscape:flatsided="false"
           sodipodi:sides="5"
           sodipodi:cx="-2894.7166"
           sodipodi:cy="-999.34644"
           sodipodi:r1="78.578613"
           sodipodi:r2="39.289307"
           sodipodi:arg1="0.90027477"
           sodipodi:arg2="1.5285933"
           inkscape:rounded="0"
           inkscape:randomized="0"
           d="m -2845.8882,-937.78027 -47.1707,-22.31184 -45.1218,26.20917 6.6433,-51.75674 -38.8698,-34.81422 51.2765,-9.6756 21.0989,-47.7256 25.0473,45.7769 51.9096,5.3182 -35.7963,37.96731 z"
           inkscape:transform-center-x="1.0245177"
           inkscape:transform-center-y="-6.5225556"
           transform="matrix(0.838772,-0.544429,0.544429,0.838772,2467.19,-1326.59)"
           id="path5973" />
        <path
           sodipodi:type="star"
           style="fill:#ffff00;stroke:#000000"
           inkscape:flatsided="false"
           sodipodi:sides="5"
           sodipodi:cx="-2894.7166"
           sodipodi:cy="-999.34644"
           sodipodi:r1="78.578613"
           sodipodi:r2="39.289307"
           sodipodi:arg1="0.90027477"
           sodipodi:arg2="1.5285933"
           inkscape:rounded="0"
           inkscape:randomized="0"
           d="m -2845.8882,-937.78027 -47.1707,-22.31184 -45.1218,26.20917 6.6433,-51.75674 -38.8698,-34.81422 51.2765,-9.6756 21.0989,-47.7256 25.0473,45.7769 51.9096,5.3182 -35.7963,37.96731 z"
           inkscape:transform-center-x="1.0245177"
           inkscape:transform-center-y="-6.5225556"
           transform="matrix(0.342943,0.939355,-0.939355,0.342943,-380.987,2565)"
           id="path5975" />
        <path
           sodipodi:type="star"
           style="fill:#ffff00;stroke:#000000"
           inkscape:flatsided="false"
           sodipodi:sides="5"
           sodipodi:cx="-2894.7166"
           sodipodi:cy="-999.34644"
           sodipodi:r1="78.578613"
           sodipodi:r2="39.289307"
           sodipodi:arg1="0.90027477"
           sodipodi:arg2="1.5285933"
           inkscape:rounded="0"
           inkscape:randomized="0"
           d="m -2845.8882,-937.78027 -47.1707,-22.31184 -45.1218,26.20917 6.6433,-51.75674 -38.8698,-34.81422 51.2765,-9.6756 21.0989,-47.7256 25.0473,45.7769 51.9096,5.3182 -35.7963,37.96731 z"
           inkscape:transform-center-x="1.0245177"
           inkscape:transform-center-y="-6.5225556"
           transform="matrix(0.342943,0.939355,-0.939355,0.342943,-329.534,2705.94)"
           id="path5977" />
        <path
           sodipodi:type="star"
           style="fill:#ffff00;stroke:#000000"
           inkscape:flatsided="false"
           sodipodi:sides="5"
           sodipodi:cx="-2894.7166"
           sodipodi:cy="-999.34644"
           sodipodi:r1="78.578613"
           sodipodi:r2="39.289307"
           sodipodi:arg1="0.90027477"
           sodipodi:arg2="1.5285933"
           inkscape:rounded="0"
           inkscape:randomized="0"
           d="m -2845.8882,-937.78027 -47.1707,-22.31184 -45.1218,26.20917 6.6433,-51.75674 -38.8698,-34.81422 51.2765,-9.6756 21.0989,-47.7256 25.0473,45.7769 51.9096,5.3182 -35.7963,37.96731 z"
           inkscape:transform-center-x="1.0245177"
           inkscape:transform-center-y="-6.5225556"
           transform="rotate(69.849461,-2174.9465,1227.9406)"
           id="path5979" />
        <path
           sodipodi:type="star"
           style="fill:#ffff00;stroke:#000000"
           inkscape:flatsided="false"
           sodipodi:sides="5"
           sodipodi:cx="-2894.7166"
           sodipodi:cy="-999.34644"
           sodipodi:r1="78.578613"
           sodipodi:r2="39.289307"
           sodipodi:arg1="0.90027477"
           sodipodi:arg2="1.5285933"
           inkscape:rounded="0"
           inkscape:randomized="0"
           d="m -2845.8882,-937.78027 -47.1707,-22.31184 -45.1218,26.20917 6.6433,-51.75674 -38.8698,-34.81422 51.2765,-9.6756 21.0989,-47.7256 25.0473,45.7769 51.9096,5.3182 -35.7963,37.96731 z"
           inkscape:transform-center-x="1.0245177"
           inkscape:transform-center-y="-6.5225556"
           transform="rotate(24.636189,-3678.5653,5483.0067)"
           id="path5981" />
        <path
           sodipodi:type="star"
           style="fill:#ffff00;stroke:#000000"
           inkscape:flatsided="false"
           sodipodi:sides="5"
           sodipodi:cx="-2894.7166"
           sodipodi:cy="-999.34644"
           sodipodi:r1="78.578613"
           sodipodi:r2="39.289307"
           sodipodi:arg1="0.90027477"
           sodipodi:arg2="1.5285933"
           inkscape:rounded="0"
           inkscape:randomized="0"
           d="m -2845.8882,-937.78027 -47.1707,-22.31184 -45.1218,26.20917 6.6433,-51.75674 -38.8698,-34.81422 51.2765,-9.6756 21.0989,-47.7256 25.0473,45.7769 51.9096,5.3182 -35.7963,37.96731 z"
           inkscape:transform-center-x="1.0245177"
           inkscape:transform-center-y="-6.5225556"
           transform="rotate(24.636189,-3753.5752,5826.5505)"
           id="path5983" />
        <path
           sodipodi:type="star"
           style="fill:#ffff00;stroke:#000000"
           inkscape:flatsided="false"
           sodipodi:sides="5"
           sodipodi:cx="-2894.7166"
           sodipodi:cy="-999.34644"
           sodipodi:r1="78.578613"
           sodipodi:r2="39.289307"
           sodipodi:arg1="0.90027477"
           sodipodi:arg2="1.5285933"
           inkscape:rounded="0"
           inkscape:randomized="0"
           d="m -2845.8882,-937.78027 -47.1707,-22.31184 -45.1218,26.20917 6.6433,-51.75674 -38.8698,-34.81422 51.2765,-9.6756 21.0989,-47.7256 25.0473,45.7769 51.9096,5.3182 -35.7963,37.96731 z"
           inkscape:transform-center-x="1.0245177"
           inkscape:transform-center-y="-6.5225556"
           transform="rotate(24.636113,-3828.6118,6170.0817)"
           id="path5985" />
        <path
           sodipodi:type="star"
           style="fill:#ffff00;stroke:#000000"
           inkscape:flatsided="false"
           sodipodi:sides="5"
           sodipodi:cx="-2894.7166"
           sodipodi:cy="-999.34644"
           sodipodi:r1="78.578613"
           sodipodi:r2="39.289307"
           sodipodi:arg1="0.90027477"
           sodipodi:arg2="1.5285933"
           inkscape:rounded="0"
           inkscape:randomized="0"
           d="m -2845.8882,-937.78027 -47.1707,-22.31184 -45.1218,26.20917 6.6433,-51.75674 -38.8698,-34.81422 51.2765,-9.6756 21.0989,-47.7256 25.0473,45.7769 51.9096,5.3182 -35.7963,37.96731 z"
           inkscape:transform-center-x="1.0245177"
           inkscape:transform-center-y="-6.5225556"
           transform="rotate(24.636113,-3903.6225,6513.6262)"
           id="path5987" />
        <path
           sodipodi:type="star"
           style="fill:#ffff00;stroke:#000000"
           inkscape:flatsided="false"
           sodipodi:sides="5"
           sodipodi:cx="-2894.7166"
           sodipodi:cy="-999.34644"
           sodipodi:r1="78.578613"
           sodipodi:r2="39.289307"
           sodipodi:arg1="0.90027477"
           sodipodi:arg2="1.5285933"
           inkscape:rounded="0"
           inkscape:randomized="0"
           d="m -2845.8882,-937.78027 -47.1707,-22.31184 -45.1218,26.20917 6.6433,-51.75674 -38.8698,-34.81422 51.2765,-9.6756 21.0989,-47.7256 25.0473,45.7769 51.9096,5.3182 -35.7963,37.96731 z"
           inkscape:transform-center-x="1.0245177"
           inkscape:transform-center-y="-6.5225556"
           transform="rotate(144.19256,-1518.5541,86.030488)"
           id="path5989" />
        <path
           sodipodi:type="star"
           style="fill:#ffff00;stroke:#000000"
           inkscape:flatsided="false"
           sodipodi:sides="5"
           sodipodi:cx="-2894.7166"
           sodipodi:cy="-999.34644"
           sodipodi:r1="78.578613"
           sodipodi:r2="39.289307"
           sodipodi:arg1="0.90027477"
           sodipodi:arg2="1.5285933"
           inkscape:rounded="0"
           inkscape:randomized="0"
           d="m -2845.8882,-937.78027 -47.1707,-22.31184 -45.1218,26.20917 6.6433,-51.75674 -38.8698,-34.81422 51.2765,-9.6756 21.0989,-47.7256 25.0473,45.7769 51.9096,5.3182 -35.7963,37.96731 z"
           inkscape:transform-center-x="1.0245177"
           inkscape:transform-center-y="-6.5225556"
           transform="rotate(144.19256,-1593.5683,110.26696)"
           id="path5991" />
        <path
           sodipodi:type="star"
           style="fill:#ffff00;stroke:#000000"
           inkscape:flatsided="false"
           sodipodi:sides="5"
           sodipodi:cx="-2894.7166"
           sodipodi:cy="-999.34644"
           sodipodi:r1="78.578613"
           sodipodi:r2="39.289307"
           sodipodi:arg1="0.90027477"
           sodipodi:arg2="1.5285933"
           inkscape:rounded="0"
           inkscape:randomized="0"
           d="m -2845.8882,-937.78027 -47.1707,-22.31184 -45.1218,26.20917 6.6433,-51.75674 -38.8698,-34.81422 51.2765,-9.6756 21.0989,-47.7256 25.0473,45.7769 51.9096,5.3182 -35.7963,37.96731 z"
           inkscape:transform-center-x="1.0245177"
           inkscape:transform-center-y="-6.5225556"
           transform="rotate(144.19269,-1668.5855,134.49872)"
           id="path5993" />
        <path
           sodipodi:type="star"
           style="fill:#ffff00;stroke:#000000"
           inkscape:flatsided="false"
           sodipodi:sides="5"
           sodipodi:cx="-2894.7166"
           sodipodi:cy="-999.34644"
           sodipodi:r1="78.578613"
           sodipodi:r2="39.289307"
           sodipodi:arg1="0.90027477"
           sodipodi:arg2="1.5285933"
           inkscape:rounded="0"
           inkscape:randomized="0"
           d="m -2845.8882,-937.78027 -47.1707,-22.31184 -45.1218,26.20917 6.6433,-51.75674 -38.8698,-34.81422 51.2765,-9.6756 21.0989,-47.7256 25.0473,45.7769 51.9096,5.3182 -35.7963,37.96731 z"
           inkscape:transform-center-x="1.0245177"
           inkscape:transform-center-y="-6.5225556"
           transform="rotate(144.19269,-1743.5997,158.73527)"
           id="path5995" />
        <path
           sodipodi:type="star"
           style="fill:#ffff00;stroke:#000000"
           inkscape:flatsided="false"
           sodipodi:sides="5"
           sodipodi:cx="-2894.7166"
           sodipodi:cy="-999.34644"
           sodipodi:r1="78.578613"
           sodipodi:r2="39.289307"
           sodipodi:arg1="0.90027477"
           sodipodi:arg2="1.5285933"
           inkscape:rounded="0"
           inkscape:randomized="0"
           d="m -2845.8882,-937.78027 -47.1707,-22.31184 -45.1218,26.20917 6.6433,-51.75674 -38.8698,-34.81422 51.2765,-9.6756 21.0989,-47.7256 25.0473,45.7769 51.9096,5.3182 -35.7963,37.96731 z"
           inkscape:transform-center-x="1.0245177"
           inkscape:transform-center-y="-6.5225556"
           transform="rotate(99.354414,-2210.3305,904.93365)"
           id="path5997" />
        <path
           sodipodi:type="star"
           style="fill:#ffff00;stroke:#000000"
           inkscape:flatsided="false"
           sodipodi:sides="5"
           sodipodi:cx="-2894.7166"
           sodipodi:cy="-999.34644"
           sodipodi:r1="78.578613"
           sodipodi:r2="39.289307"
           sodipodi:arg1="0.90027477"
           sodipodi:arg2="1.5285933"
           inkscape:rounded="0"
           inkscape:randomized="0"
           d="m -2845.8882,-937.78027 -47.1707,-22.31184 -45.1218,26.20917 6.6433,-51.75674 -38.8698,-34.81422 51.2765,-9.6756 21.0989,-47.7256 25.0473,45.7769 51.9096,5.3182 -35.7963,37.96731 z"
           inkscape:transform-center-x="1.0245177"
           inkscape:transform-center-y="-6.5225556"
           transform="rotate(99.354414,-2285.3447,968.60742)"
           id="path5999" />
        <path
           sodipodi:type="star"
           style="fill:#ffff00;stroke:#000000"
           inkscape:flatsided="false"
           sodipodi:sides="5"
           sodipodi:cx="-2894.7166"
           sodipodi:cy="-999.34644"
           sodipodi:r1="78.578613"
           sodipodi:r2="39.289307"
           sodipodi:arg1="0.90027477"
           sodipodi:arg2="1.5285933"
           inkscape:rounded="0"
           inkscape:randomized="0"
           d="m -2845.8882,-937.78027 -47.1707,-22.31184 -45.1218,26.20917 6.6433,-51.75674 -38.8698,-34.81422 51.2765,-9.6756 21.0989,-47.7256 25.0473,45.7769 51.9096,5.3182 -35.7963,37.96731 z"
           inkscape:transform-center-x="1.0245177"
           inkscape:transform-center-y="-6.5225556"
           transform="rotate(99.35447,-2360.3622,1032.2774)"
           id="path6001" />
        <path
           sodipodi:type="star"
           style="fill:#ffff00;stroke:#000000"
           inkscape:flatsided="false"
           sodipodi:sides="5"
           sodipodi:cx="-2894.7166"
           sodipodi:cy="-999.34644"
           sodipodi:r1="78.578613"
           sodipodi:r2="39.289307"
           sodipodi:arg1="0.90027477"
           sodipodi:arg2="1.5285933"
           inkscape:rounded="0"
           inkscape:randomized="0"
           d="m -2845.8882,-937.78027 -47.1707,-22.31184 -45.1218,26.20917 6.6433,-51.75674 -38.8698,-34.81422 51.2765,-9.6756 21.0989,-47.7256 25.0473,45.7769 51.9096,5.3182 -35.7963,37.96731 z"
           inkscape:transform-center-x="1.0245177"
           inkscape:transform-center-y="-6.5225556"
           transform="rotate(99.35447,-2435.3771,1095.942)"
           id="path6003" />
        <path
           sodipodi:type="star"
           style="fill:#ffff00;stroke:#000000"
           inkscape:flatsided="false"
           sodipodi:sides="5"
           sodipodi:cx="-2894.7166"
           sodipodi:cy="-999.34644"
           sodipodi:r1="78.578613"
           sodipodi:r2="39.289307"
           sodipodi:arg1="0.90027477"
           sodipodi:arg2="1.5285933"
           inkscape:rounded="0"
           inkscape:randomized="0"
           d="m -2845.8882,-937.78027 -47.1707,-22.31184 -45.1218,26.20917 6.6433,-51.75674 -38.8698,-34.81422 51.2765,-9.6756 21.0989,-47.7256 25.0473,45.7769 51.9096,5.3182 -35.7963,37.96731 z"
           inkscape:transform-center-x="1.0245177"
           inkscape:transform-center-y="-6.5225556"
           transform="rotate(-146.52626,-1320.0858,-370.68078)"
           id="path6005" />
        <path
           sodipodi:type="star"
           style="fill:#ffff00;stroke:#000000"
           inkscape:flatsided="false"
           sodipodi:sides="5"
           sodipodi:cx="-2894.7166"
           sodipodi:cy="-999.34644"
           sodipodi:r1="78.578613"
           sodipodi:r2="39.289307"
           sodipodi:arg1="0.90027477"
           sodipodi:arg2="1.5285933"
           inkscape:rounded="0"
           inkscape:randomized="0"
           d="m -2845.8882,-937.78027 -47.1707,-22.31184 -45.1218,26.20917 6.6433,-51.75674 -38.8698,-34.81422 51.2765,-9.6756 21.0989,-47.7256 25.0473,45.7769 51.9096,5.3182 -35.7963,37.96731 z"
           inkscape:transform-center-x="1.0245177"
           inkscape:transform-center-y="-6.5225556"
           transform="rotate(-146.52626,-1395.1029,-393.23847)"
           id="path6007" />
      </g>
    </g>
    <path
       style="fill:#ffcc00;stroke:#000000;stroke-width:12.6733"
       d="m 2796.2715,3234.4483 c -15.7184,-9.9987 -16.2484,-16.5481 -3.061,-37.8258 14.3455,-23.146 12.8891,-25.7332 -14.4856,-25.7332 -16.7391,0 -33.7174,-8.5545 -37.7295,-19.0099 -4.0121,-10.4554 -18.2696,-19.0099 -31.6832,-19.0099 -13.4136,0 -27.671,-8.5545 -31.6831,-19.0099 -9.4732,-24.6868 -33.4369,-24.6097 -33.4369,0.1073 0,15.8291 -4.2819,16.4432 -24.8938,3.571 -17.5064,-10.933 -22.74,-24.1279 -17.636,-44.4639 5.7458,-22.8929 1.9735,-28.9174 -18.1067,-28.9174 -13.9505,0 -29.2335,-9.9802 -33.9622,-22.1782 -8.0147,-20.6744 -9.6599,-20.7362 -24.2636,-0.9137 -10.7518,14.5946 -21.4001,17.6371 -33.9463,9.6989 -10.0543,-6.3613 -12.5775,-11.8348 -5.6072,-12.1631 6.9703,-0.3283 3.5229,-7.5663 -7.6608,-16.0843 -11.1837,-8.5173 -24.5819,-28.8704 -29.7738,-45.2285 -6.8687,-21.6414 -13.2389,-25.9428 -23.3887,-15.7929 -7.6719,7.6719 -27.0658,13.949 -43.0975,13.949 -20.6996,0 -29.1485,7.3468 -29.1485,25.3465 0,16.8976 -8.4488,25.3465 -25.3465,25.3465 -16.8977,0 -25.3466,-8.4489 -25.3466,-25.3465 0,-26.729 -18.4381,-34.1042 -31.6831,-12.6733 -4.3079,6.9703 -22.1377,12.6733 -39.6218,12.6733 -26.022,0 -30.3298,4.5985 -23.7446,25.3465 6.6188,20.8539 2.2774,25.3466 -24.4925,25.3466 -20.4731,0 -32.5372,-7.0485 -32.5372,-19.0099 0,-21.5455 -19.8502,-25.4828 -31.7119,-6.2902 -4.3237,6.9959 -21.3708,9.3292 -37.8824,5.1849 -25.6773,-6.4445 -29.0186,-3.7006 -23.0918,18.9634 5.7102,21.8359 1.1647,26.4983 -25.8341,26.4983 -23.9164,0 -30.7937,-5.1332 -25.4687,-19.0099 8.2417,-21.4775 -26.9762,-27.0431 -39.8022,-6.2901 -4.3237,6.9959 -21.147,9.3853 -37.3852,5.3097 -16.2381,-4.0755 -33.3341,-1.2445 -37.991,6.2901 -14.2863,23.1158 -30.3355,15.1939 -23.3484,-11.5248 4.9408,-18.8938 13.7915,-23.4192 35.2632,-18.0301 24.9322,6.2576 27.8903,3.1333 22.7068,-23.9825 -3.278,-17.1476 0.2801,-35.034 7.9067,-39.7476 20.5167,-12.68 16.8192,-32.4207 -6.0724,-32.4207 -12.2997,0 -18.1702,-8.4974 -15.3221,-22.1783 3.0673,-14.7341 14.5201,-21.0752 34.1213,-18.8919 23.6546,2.6347 28.2266,-1.6 23.0597,-21.3584 -3.5446,-13.5545 1.8027,-36.4195 11.8829,-50.811 16.8274,-24.0244 16.083,-26.1664 -9.0934,-26.1664 -19.7977,0 -25.2824,-5.5731 -19.7285,-20.0464 4.2309,-11.0255 7.6925,-25.6673 7.6925,-32.5372 0,-6.8699 11.406,-8.8707 25.3465,-4.4461 20.4743,6.4983 25.3466,2.2774 25.3466,-21.9578 0,-16.5015 7.0303,-37.0329 15.623,-45.6256 12.3818,-12.3818 9.7526,-17.1582 -12.6733,-23.0227 -40.0857,-10.4826 -39.9228,-74.2579 0.2186,-85.5441 26.0238,-7.3169 26.5773,-9.1618 6.3367,-21.1177 -12.1981,-7.2053 -22.1783,-27.0745 -22.1783,-44.1539 0,-32.4495 -17.4862,-41.3514 -32.7413,-16.668 -5.7273,9.2669 -14.662,3.6303 -25.1108,-15.8416 -14.424,-26.8799 -13.1715,-31.8797 11.311,-45.1521 24.8791,-13.4874 25.3947,-15.7545 5.353,-23.5342 -12.198,-4.7349 -22.1782,-19.0682 -22.1782,-31.8516 0,-28.7116 -20.3731,-43.0387 -32.742,-23.0255 -6.4327,10.4084 -14.2135,7.8708 -26.2222,-8.5521 -22.2014,-30.3622 -21.6062,-43.8541 1.9345,-43.8541 10.4554,0 19.0099,-5.8819 19.0099,-13.071 0,-7.189 -8.5545,-16.3537 -19.0099,-20.3658 -10.4555,-4.0121 -19.0099,-18.0906 -19.0099,-31.2854 0,-26.5276 -13.3426,-30.9253 -33.2943,-10.9736 -8.9072,8.9072 -17.6732,2.7979 -27.7645,-19.3501 -13.7209,-30.1142 -12.2151,-32.8736 21.6345,-39.6435 28.015,-5.603 34.9346,-12.8111 30.0884,-31.343 -5.0484,-19.305 0.5599,-24.0666 28.3458,-24.0666 27.7452,0 33.3909,4.7739 28.3667,23.9865 -5.4095,20.6861 0.4802,23.7376 42.8067,22.1782 38.316,-1.4117 49.0949,-6.8653 49.1509,-24.8679 0.052,-16.6498 7.998,-21.934 28.5866,-19.0099 19.0367,2.7036 27.277,11.4216 24.7909,26.228 -4.095,24.3885 16.2782,30.2032 29.7051,8.478 4.7673,-7.7136 22.4283,-10.1961 40.4172,-5.6812 27.6003,6.9273 31.0244,4.479 25.1505,-17.983 -5.6473,-21.5951 -0.855,-26.002 28.2762,-26.002 31.4211,0 34.3859,3.6314 28.4538,34.8515 -5.9248,31.182 -4.4227,33.0345 14.2661,17.5947 13.0437,-10.7759 33.4681,-14.0994 54.3855,-8.8495 29.2601,7.3439 32.6371,5.1183 26.6976,-17.5947 -3.7503,-14.3412 -0.675,-26.002 6.8575,-26.002 7.5115,0 23.9676,-9.3307 36.5691,-20.7349 21.2133,-19.1978 23.5018,-19.1978 30.8687,0 9.8859,25.7623 30.5915,27.2317 30.5915,2.1709 0,-10.2102 12.0182,-24.9959 26.7071,-32.8572 19.5309,-10.4526 22.9362,-18.0641 12.6733,-28.3271 -7.7187,-7.7186 -14.0339,-17.9861 -14.0339,-22.8165 0,-16.6545 41.271,-24.5731 57.5702,-11.046 12.2414,10.1594 18.3564,7.1992 24.3885,-11.8063 4.4279,-13.951 19.4652,-28.9883 33.4162,-33.4162 20.2299,-6.4208 22.3504,-11.6838 10.4732,-25.9948 -19.3623,-23.3302 9.7645,-64.8265 30.7633,-43.8278 19.1843,19.1843 33.4876,16.2004 33.4876,-6.986 0,-11.108 11.406,-23.1791 25.3465,-26.8246 28.5625,-7.4693 33.3394,-23.9431 9.505,-32.7796 -11.9496,-4.4303 -11.0131,-10.9639 3.812,-26.5938 18.0762,-19.0574 21.9727,-17.5837 48.547,18.3599 15.8914,21.4942 25.5174,47.878 21.3913,58.6307 -5.8929,15.3565 -0.9853,17.9146 22.878,11.9253 40.7022,-10.2156 57.726,39.2841 18.5008,53.7944 -22.9539,8.4912 -23.4838,11.0779 -5.3522,26.1258 11.0683,9.1858 20.1241,27.7934 20.1241,41.3502 0,18.3386 6.0866,22.717 23.7755,17.1028 35.1283,-11.1493 46.8962,41.9721 12.1457,54.8272 -22.9539,8.4912 -23.4838,11.0778 -5.3522,26.1257 11.0682,9.1858 20.1241,27.4091 20.1241,40.4963 0,27.0947 18.98,31.5629 33.7831,7.9531 14.688,-23.426 29.2959,80.8821 15.0862,107.7228 -9.5127,17.9687 -6.4338,22.1782 16.2215,22.1782 15.3796,0 38.3921,9.4384 51.139,20.9741 21.7646,19.6967 23.1761,19.3273 23.1761,-6.0649 0,-24.3198 3.2209,-25.5715 32.0269,-12.4466 21.9152,9.9852 27.9171,18.7023 19.01,27.6095 -21.3559,21.3558 -14.9309,33.2943 17.9181,33.2943 17.0144,0 34.4599,5.7029 38.7678,12.6732 11.9454,19.3281 31.6831,15.1028 31.6831,-6.7825 0,-15.6808 5.0361,-16.7605 25.9557,-5.5648 17.9672,9.6158 23.555,21.4543 18.1558,38.4657 -6.2891,19.8154 -1.7028,24.5747 23.6814,24.5747 17.3146,0 34.4769,7.1287 38.1383,15.8416 4.7618,11.3316 10.6671,9.5037 20.7426,-6.4204 19.5769,-30.9412 63.9383,-7.784 54.4674,28.4327 -4.9066,18.7628 -0.4131,25.6191 16.9847,25.9155 34.7248,0.5916 73.6136,32.6593 54.1753,44.6729 -8.9074,5.505 -22.3824,-0.1217 -32.0929,-13.402 -15.7177,-21.4954 -17.2516,-21.5542 -25.1524,-0.9653 -4.6275,12.0593 -22.5133,27.2867 -39.7459,33.8385 -24.4597,9.2996 -28.216,15.6673 -17.1252,29.0309 10.756,12.9603 9.2184,21.2586 -6.3306,34.1631 -17.5365,14.554 -23.1746,13.4384 -38.5835,-7.6345 -17.6678,-24.1622 -18.2009,-24.0858 -25.4531,3.6467 -4.3595,16.6702 -17.2289,28.3258 -31.2758,28.3258 -26.5209,0 -31.8577,18.913 -9.2754,32.8698 10.1205,6.2548 7.4788,14.2212 -8.6195,25.9926 -19.6436,14.3637 -26.5826,13.9239 -45.1285,-2.86 -20.0542,-18.1487 -22.6242,-17.6018 -30.2543,6.4385 -4.647,14.6414 -19.1812,26.272 -32.831,26.272 -28.2177,0 -33.0007,22.8771 -6.8788,32.9011 26.3564,10.1138 -35.5599,68.0349 -64.6545,60.4827 -18.9373,-4.9156 -22.7636,2.5492 -23.2796,45.4164 -0.4085,33.9336 4.9541,51.2988 15.8416,51.2988 9.0524,0 16.459,11.406 16.459,25.3466 0,18.6812 -8.4488,25.3465 -32.129,25.3465 -27.8668,0 -30.3841,3.2605 -18.9757,24.5774 8.7471,16.344 8.8965,27.2084 0.4459,32.4311 -19.6069,12.1178 -15.0255,44.3776 6.3024,44.3776 10.9102,0 19.0099,11.4294 19.0099,26.8246 0,21.0268 -5.763,25.3177 -26.6629,19.8522 -22.7344,-5.9451 -25.7858,-2.3838 -20.7096,24.1708 3.2744,17.129 1.0153,34.1954 -5.0202,37.9256 -17.7401,10.964 -12.5802,30.6328 8.0363,30.6328 11.9614,0 19.0099,12.064 19.0099,32.5372 0,26.5362 -4.5762,31.0847 -24.8118,24.6622 -17.0398,-5.4082 -29.904,0.2788 -41.0683,18.1558 -18.3904,29.4477 -21.7171,30.3833 -48.1793,13.5503 z"
       id="path6412"
       inkscape:export-filename="C:\Users\Vladimir\Projects\UsefulClicker\images\path9542.png"
       inkscape:export-xdpi="9.600872"
       inkscape:export-ydpi="9.600872" />
    <path
       style="fill:#ffcc00;stroke:#000000;stroke-width:12.6733"
       d="m 3063.6634,4420.5403 c -23.5696,-25.0888 -37.1322,-29.1928 -78.2487,-23.6779 -55.9756,7.5079 -57.6651,4.7325 -29.8558,-49.0447 15.6452,-30.2545 16.9954,-46.7257 6.3366,-77.3014 -20.7975,-59.66 -17.8146,-64.3291 36.448,-57.051 39.8212,5.3412 58.5154,0.4107 91.8811,-24.2329 l 41.8884,-30.9384 10.445,52.2302 c 8.2313,41.1604 20.0491,57.8967 55.7597,78.9665 l 45.3148,26.7364 -51.5552,24.9696 c -40.9158,19.8166 -53.1953,33.7118 -59.5024,67.3311 -9.3928,50.0683 -29.8154,53.6283 -68.9115,12.0125 z"
       id="path6525"
       inkscape:export-filename="C:\Users\Vladimir\Projects\UsefulClicker\images\path9542.png"
       inkscape:export-xdpi="9.600872"
       inkscape:export-ydpi="9.600872" />
    <path
       style="fill:#6c5d53;stroke:#000000;stroke-width:12.6733"
       d="m 3588.3507,4233.2194 c -36.0192,-22.3912 -56.2505,-22.725 -125.4146,-2.0692 -21.5422,6.4336 -23.2152,2.0901 -16.1683,-41.9786 5.943,-37.1651 1.7778,-58.3822 -17.0762,-86.9858 -33.5063,-50.8328 -31.8699,-56.8411 15.4815,-56.8411 28.3458,0 52.9882,-12.0219 81.7149,-39.8649 l 41.1302,-39.865 27.2596,46.2016 c 14.9928,25.4109 32.0281,46.2016 37.8561,46.2016 5.828,0 26.1063,5.8969 45.0629,13.1041 l 34.4664,13.1042 -33.6414,35.1141 c -18.5028,19.3127 -34.0423,49.0594 -34.5322,66.1038 -0.4899,17.0443 -4.7671,40.0843 -9.5049,51.1999 -7.7374,18.1529 -12.4844,17.8043 -46.634,-3.4247 z"
       id="path6564"
       inkscape:export-filename="C:\Users\Vladimir\Projects\UsefulClicker\images\path9542.png"
       inkscape:export-xdpi="9.600872"
       inkscape:export-ydpi="9.600872" />
    <path
       style="fill:#d65d53;fill-opacity:1;stroke:#000000;stroke-width:12.6733"
       d="m 4223.5436,3533.7834 c -12.5005,-29.9179 -34.4001,-53.0822 -63.1416,-66.7881 l -44.0034,-20.9837 43.3028,-40.8397 c 31.3774,-29.5928 43.3027,-51.7707 43.3027,-80.5315 0,-46.8676 3.6708,-47.828 51.8047,-13.5536 29.6341,21.1013 47.5198,24.5167 92.8164,17.7241 l 56.1089,-8.4141 -12.7933,50.4015 c -10.1529,39.9992 -8.6343,58.4441 7.3578,89.3694 11.0831,21.4323 20.1511,42.1025 20.1511,45.9338 0,3.8313 -23.9256,6.966 -53.1679,6.966 -40.1171,0 -61.6895,8.1642 -87.884,33.2601 l -34.716,33.26 z"
       id="path6677"
       inkscape:export-filename="C:\Users\Vladimir\Projects\UsefulClicker\images\path9542.png"
       inkscape:export-xdpi="9.600872"
       inkscape:export-ydpi="9.600872" />
    <path
       style="fill:#d65d53;fill-opacity:1;stroke:#000000;stroke-width:12.6733"
       d=""
       id="path6975"
       inkscape:export-filename="C:\Users\Vladimir\Projects\UsefulClicker\images\path9542.png"
       inkscape:export-xdpi="9.600872"
       inkscape:export-ydpi="9.600872" />
    <path
       style="fill:#d6a46b;fill-opacity:1;stroke:#000000;stroke-width:12.6733"
       d="m 4375.7957,2063.8944 c 6.264,-45.7014 2.3544,-59.7103 -26.1024,-93.5294 l -33.4701,-39.7768 57.2909,-8.5913 c 47.561,-7.1322 61.9705,-16.1633 84.846,-53.1766 l 27.5552,-44.5853 23.3463,45.5065 c 17.5087,34.1279 36.0092,49.3004 73.9899,60.6797 27.8541,8.3453 50.6437,18.9794 50.6437,23.6313 0,4.652 -14.2574,21.8523 -31.6831,38.2229 -23.0875,21.6895 -31.6832,42.9187 -31.6832,78.2488 0,26.6661 -2.155,48.4839 -4.7889,48.4839 -2.634,0 -25.0182,-8.4523 -49.7429,-18.783 -39.2242,-16.3889 -51.4936,-16.4756 -96.2615,-0.6806 l -51.3075,18.1023 7.3676,-53.7525 z"
       id="path7014"
       inkscape:export-filename="C:\Users\Vladimir\Projects\UsefulClicker\images\path9542.png"
       inkscape:export-xdpi="9.600872"
       inkscape:export-ydpi="9.600872" />
    <path
       style="fill:#d62590;fill-opacity:1;stroke:#000000;stroke-width:12.6733"
       d="m 4551.5641,2595.327 c -29.203,-23.2857 -47.3444,-27.8809 -90.754,-22.988 l -54.2551,6.1154 19.6939,-50.1358 c 17.8487,-45.4383 17.821,-54.618 -0.2951,-97.9759 l -19.9889,-47.8403 53.7671,5.4234 c 42.6354,4.3005 62.2532,-0.9532 94.7551,-25.3759 l 40.988,-30.7992 12.8734,33.8596 c 7.0804,18.6229 12.8735,39.3838 12.8735,46.1354 0,6.7516 19.9603,24.0526 44.3564,38.4466 24.396,14.394 44.3564,27.8958 44.3564,30.0039 0,2.1082 -19.3912,15.2742 -43.0917,29.2578 -28.5848,16.8654 -45.979,38.5703 -51.6681,64.4728 -11.527,52.4821 -20.7424,55.5823 -63.6109,21.4002 z"
       id="path7534"
       inkscape:export-filename="C:\Users\Vladimir\Projects\UsefulClicker\images\path9542.png"
       inkscape:export-xdpi="9.600872"
       inkscape:export-ydpi="9.600872" />
    <path
       style="fill:#d62590;fill-opacity:1;stroke:#000000;stroke-width:12.6733"
       d="m 3090.2246,771.16006 c -33.3657,-24.64365 -52.0599,-29.57408 -91.8811,-24.23293 -54.2626,7.27813 -57.2455,2.60898 -36.448,-57.05099 10.6588,-30.57569 9.3086,-47.04695 -6.3366,-77.30139 -27.8093,-53.77723 -26.1198,-56.55263 29.8558,-49.04473 41.1165,5.51488 54.6791,1.41087 78.2487,-23.67786 39.0961,-41.61587 59.5187,-38.05587 68.9115,12.01246 6.3071,33.61928 18.5866,47.5145 59.5024,67.3311 l 51.5552,24.96962 -45.3148,26.73636 c -35.7106,21.06983 -47.5284,37.80611 -55.7597,78.96655 l -10.445,52.23017 z"
       id="path7980"
       inkscape:export-filename="C:\Users\Vladimir\Projects\UsefulClicker\images\path9542.png"
       inkscape:export-xdpi="9.600872"
       inkscape:export-ydpi="9.600872" />
    <path
       style="fill:#35b1ab;fill-opacity:1;stroke:#000000;stroke-width:12.6733"
       d="m 3510.3351,908.29678 c -8.1896,-17.48085 -9.4113,-31.2689 -2.7706,-31.2689 14.0817,0 27.9892,31.83302 21.7836,49.86072 -2.4001,6.97239 -10.9559,-1.39393 -19.013,-18.59182 z"
       id="path8019"
       inkscape:export-filename="C:\Users\Vladimir\Projects\UsefulClicker\images\path9542.png"
       inkscape:export-xdpi="9.600872"
       inkscape:export-ydpi="9.600872" />
    <path
       style="fill:#35b196;fill-opacity:1;stroke:#000000;stroke-width:12.6733"
       d="m 2520.5114,4482.4156 c -18.5419,-28.6239 -38.6388,-44.268 -57.0297,-44.3936 -55.0023,-0.3759 -64.442,-17.9828 -31.1382,-58.079 24.2143,-29.1528 29.3014,-47.0218 24.54,-86.1999 -5.7556,-47.3582 -4.7479,-48.9995 24.1164,-39.2783 38.6189,13.0064 110.3401,13.0064 148.959,0 28.8643,-9.7212 29.872,-8.0799 24.1164,39.2783 -4.7614,39.1781 0.3256,57.0471 24.5399,86.1999 33.3039,40.0962 23.8642,57.7031 -31.1381,58.079 -18.391,0.1254 -38.4879,15.7697 -57.0297,44.3936 -15.7473,24.3097 -31.4829,44.1996 -34.968,44.1996 -3.4852,0 -19.2208,-19.8899 -34.968,-44.1996 z"
       id="path8872"
       inkscape:export-filename="C:\Users\Vladimir\Projects\UsefulClicker\images\path9542.png"
       inkscape:export-xdpi="9.600872"
       inkscape:export-ydpi="9.600872" />
    <path
       style="fill:#358b96;fill-opacity:1;stroke:#000000;stroke-width:12.6733"
       d="m 1978.3838,4408.5278 c -6.307,-33.6193 -18.5866,-47.5145 -59.5023,-67.3311 l -51.5553,-24.9696 45.3148,-26.7364 c 35.7107,-21.0698 47.5285,-37.8061 55.7597,-78.9665 l 10.445,-52.2302 41.8884,30.9384 c 33.3658,24.6436 52.0599,29.5741 91.8812,24.2329 54.2625,-7.2781 57.2455,-2.609 36.4479,57.051 -10.6587,30.5757 -9.3085,47.0469 6.3367,77.3014 27.5637,53.3023 26.104,55.909 -27.6433,49.3667 -36.7832,-4.4775 -55.6217,0.938 -83.3486,23.96 -47.4521,39.3999 -56.5935,37.6531 -66.0242,-12.6166 z"
       id="path9355"
       inkscape:export-filename="C:\Users\Vladimir\Projects\UsefulClicker\images\path9542.png"
       inkscape:export-xdpi="9.600872"
       inkscape:export-ydpi="9.600872" />
    <path
       style="fill:url(#radialGradient12940);fill-opacity:1.0;stroke:none;stroke-width:12.6733"
       d="m 2807.5419,3226.9598 c -0.7715,-6.4427 -0.3635,-24.5457 0.907,-40.2289 1.6693,-20.6079 -4.5398,-28.5149 -22.392,-28.5149 -13.5859,0 -31.8013,-8.5544 -40.4785,-19.0099 -8.6773,-10.4554 -21.7582,-19.0099 -29.0687,-19.0099 -7.3106,0 -23.6142,-9.3416 -36.2303,-20.7589 -18.7003,-16.9236 -26.4946,-17.8076 -42.1861,-4.7849 -16.3902,13.6027 -19.2476,10.9938 -19.2476,-17.5746 0,-23.7323 -8.8815,-36.9253 -30.354,-45.0892 -16.6948,-6.3472 -32.8763,-19.0377 -35.9589,-28.2011 -4.5794,-13.6124 -9.2229,-13.675 -25.3806,-0.342 -16.6743,13.7593 -23.8218,11.1751 -45.5733,-16.4776 -14.1886,-18.0379 -27.768,-38.7079 -30.1765,-45.9333 -7.6058,-22.8175 -101.1627,2.0971 -108.1456,28.7996 -7.2715,27.8066 -28.5695,31.8078 -28.5695,5.3674 0,-27.2303 -24.251,-37.0953 -55.0698,-22.4018 -15.0186,7.1604 -37.8783,16.4355 -50.7996,20.6115 -14.3309,4.6316 -20.6641,14.9647 -16.2393,26.4957 9.8377,25.6367 -17.0927,24.0273 -36.2457,-2.166 -10.7303,-14.6746 -22.6933,-17.9298 -39.4169,-10.7255 -13.206,5.6889 -33.9911,9.1085 -46.1891,7.5992 -14.8415,-1.8365 -22.1782,5.9039 -22.1782,23.3987 0,31.8189 -10.9502,33.3442 -32.066,4.4665 -13.3529,-18.2611 -21.0615,-19.3024 -48.9219,-6.6084 -29.6218,13.4967 -33.0715,12.4349 -33.0715,-10.1783 0,-13.8858 7.1287,-36.9227 15.8416,-51.1933 13.4797,-22.078 12.1739,-28.6655 -8.7589,-44.1844 -24.0878,-17.858 -24.0373,-18.2381 2.4204,-18.2381 32.8467,0 35.9013,-4.718 47.1786,-72.8713 7.2997,-44.1143 5.3428,-53.8614 -10.8136,-53.8614 -11.557,0 -16.9492,-7.2364 -13.0207,-17.474 3.688,-9.6107 15.3181,-16.7394 25.8447,-15.8415 26.0546,2.2222 60.8464,-94.7564 38.9803,-108.6538 -8.4129,-5.347 -19.5734,-9.8091 -24.8011,-9.9158 -5.2278,-0.1067 -9.505,-11.6 -9.505,-25.5406 0,-13.9406 4.2772,-25.4339 9.505,-25.5406 5.2277,-0.1065 17.8326,-5.4615 28.0109,-11.8996 16.0646,-10.1613 15.8192,-14.7333 -1.86,-34.6574 -11.2012,-12.6235 -22.5584,-34.3578 -25.2381,-48.2984 -3.2076,-16.687 -14.4791,-25.0028 -32.9915,-24.3403 -33.7387,1.2074 -36.4332,-17.1866 -5.9411,-40.5564 17.924,-13.7374 18.9196,-19.1467 5.1905,-28.2 -9.3433,-6.1611 -23.7625,-24.7908 -32.0427,-41.3994 -8.2803,-16.6085 -23.4477,-30.7677 -33.7054,-31.4649 -39.3991,-2.6777 -41.7557,-5.6759 -18.0725,-22.9934 22.454,-16.4188 22.8061,-19.7537 4.3486,-41.1881 -11.0461,-12.8276 -23.7739,-33.6963 -28.2842,-46.3749 -5.7688,-16.2163 -15.7353,-20.6607 -33.6095,-14.9876 -33.0448,10.488 -33.0931,-13.9859 -0.062,-31.6634 13.9406,-7.4607 25.3466,-21.9188 25.3466,-32.129 0,-27.8789 34.0774,-22.3351 41.6918,6.7825 8.7862,33.5984 64.1158,33.5984 97.7141,0 30.4247,-30.4247 38.0198,-31.6111 38.0198,-5.9389 0,25.7158 33.9083,37.8012 55.5848,19.8114 9.4832,-7.8704 26.8597,-10.6192 38.6144,-6.1085 15.0635,5.7804 23.4559,0.2335 28.431,-18.7912 9.8717,-37.7494 29.449,-33.7298 29.449,6.0465 0,26.7374 4.2301,31.1763 22.1782,23.2727 12.1981,-5.3714 38.6339,-10.2588 58.7463,-10.8608 25.2316,-0.7552 39.6894,-9.5324 46.6366,-28.3126 13.8252,-37.373 34.6361,-47.7092 57.632,-28.6243 16.1793,13.4276 24.2778,9.9903 49.6821,-21.0872 16.6936,-20.4214 30.557,-47.1101 30.8077,-59.3081 0.2754,-13.402 10.2578,-22.1782 25.2262,-22.1782 32.6152,0 89.2889,-57.5344 89.2889,-90.6448 0,-18.5926 5.7678,-23.9131 20.0019,-18.451 28.8606,11.0749 96.4666,-59.3734 85.9046,-89.5162 -7.29,-20.805 -6.0349,-21.2238 12.2951,-4.1029 11.2276,10.487 22.5787,33.2989 25.2246,50.6931 3.534,23.2331 14.5692,33.4468 41.5833,38.4881 36.4443,6.801 36.5211,7.0014 8.5986,22.4417 l -28.174,15.5794 26.661,51.1503 c 16.8326,32.2942 33.0586,48.6953 44.0156,44.4907 9.5451,-3.6628 17.3547,1.1057 17.3547,10.5966 0,9.491 -8.5559,20.5395 -19.0132,24.5523 -16.2552,6.2377 -15.1504,14.7068 7.6162,58.3856 14.6462,28.0993 34.6081,51.0896 44.3597,51.0896 12.5649,0 17.7304,16.6147 17.7304,57.0297 0,42.8251 4.8459,57.0297 19.4557,57.0297 10.7007,0 33.4545,9.1723 50.564,20.3828 28.583,18.7283 31.7431,18.7283 38.9298,0 11.3856,-29.6703 33.6392,-25.0293 24.1,5.0261 -5.7058,17.9773 -1.3222,27.5802 14.9875,32.8324 12.6786,4.0829 35.6893,13.4689 51.1349,20.8578 20.2022,9.6644 32.9768,9.3728 45.5225,-1.0392 20.6565,-17.1434 35.1792,-6.8601 25.5926,18.1218 -3.8953,10.1513 3.2137,20.798 16.7149,25.0326 12.9212,4.0528 34.1456,13.1235 47.1655,20.1573 16.2389,8.7728 27.9787,8.4823 37.3861,-0.9252 20.3283,-20.3283 33.991,-16.6713 33.991,9.0981 0,12.5466 6.3127,29.1246 14.0281,36.84 10.2552,10.2552 5.1425,19.8501 -19.0099,35.6754 -18.1708,11.906 -33.038,32.3973 -33.038,45.5363 0,25.5246 -18.7398,32.1584 -31.6832,11.2157 -12.3361,-19.9603 -29.2798,-14.8639 -37.5854,11.3049 -4.1858,13.188 -19.5807,27.1085 -34.2111,30.9344 -19.2253,5.0275 -24.7511,14.0295 -19.9296,32.4668 5.8324,22.3031 2.0594,24.5882 -30.0092,18.1745 -23.4435,-4.6887 -36.6805,-2.0778 -36.6805,7.235 0,8.0141 -14.2574,19.9918 -31.6832,26.617 -31.4251,11.9479 -44.7686,50.6931 -17.4581,50.6931 9.8282,0 9.3486,5.8758 -1.5518,19.0099 -8.6772,10.4555 -26.6256,19.0099 -39.8852,19.0099 -13.4974,0 -28.9875,12.8328 -35.1937,29.1563 -12.5369,32.9747 -3.8043,97.5764 13.19,97.5764 6.1577,0 11.1959,5.703 11.1959,12.6733 0,6.9702 -10.6551,12.6732 -23.6779,12.6732 -31.8448,0 -48.4455,100.2759 -20.1629,121.7932 25.1468,19.1316 23.2339,30.286 -5.1941,30.286 -32.0672,0 -48.6433,88.1429 -20.5212,109.1199 21.3804,15.9482 26.1941,48.9861 5.2516,36.0429 -7.4863,-4.6268 -27.4467,4.5852 -44.3565,20.4711 -16.9097,15.8858 -31.3762,23.6121 -32.1478,17.1693 z"
       id="path9542"
       inkscape:transform-center-x="-25.358361"
       inkscape:transform-center-y="-6.2875401"
       inkscape:export-filename="C:\Users\Vladimir\Projects\UsefulClicker\images\path9542.png"
       inkscape:export-xdpi="9.600872"
       inkscape:export-ydpi="9.600872" />
  </g>
  <script
     id="mesh_polyfill"
     type="text/javascript">
!function(){const t=&quot;http://www.w3.org/2000/svg&quot;,e=&quot;http://www.w3.org/1999/xlink&quot;,s=&quot;http://www.w3.org/1999/xhtml&quot;,r=2;if(document.createElementNS(t,&quot;meshgradient&quot;).x)return;const n=(t,e,s,r)=&gt;{let n=new x(.5*(e.x+s.x),.5*(e.y+s.y)),o=new x(.5*(t.x+e.x),.5*(t.y+e.y)),i=new x(.5*(s.x+r.x),.5*(s.y+r.y)),a=new x(.5*(n.x+o.x),.5*(n.y+o.y)),h=new x(.5*(n.x+i.x),.5*(n.y+i.y)),l=new x(.5*(a.x+h.x),.5*(a.y+h.y));return[[t,o,a,l],[l,h,i,r]]},o=t=&gt;{let e=t[0].distSquared(t[1]),s=t[2].distSquared(t[3]),r=.25*t[0].distSquared(t[2]),n=.25*t[1].distSquared(t[3]),o=e&gt;s?e:s,i=r&gt;n?r:n;return 18*(o&gt;i?o:i)},i=(t,e)=&gt;Math.sqrt(t.distSquared(e)),a=(t,e)=&gt;t.scale(2/3).add(e.scale(1/3)),h=t=&gt;{let e,s,r,n,o,i,a,h=new g;return t.match(/(\w+\(\s*[^)]+\))+/g).forEach(t=&gt;{let l=t.match(/[\w.-]+/g),d=l.shift();switch(d){case&quot;translate&quot;:2===l.length?e=new g(1,0,0,1,l[0],l[1]):(console.error(&quot;mesh.js: translate does not have 2 arguments!&quot;),e=new g(1,0,0,1,0,0)),h=h.append(e);break;case&quot;scale&quot;:1===l.length?s=new g(l[0],0,0,l[0],0,0):2===l.length?s=new g(l[0],0,0,l[1],0,0):(console.error(&quot;mesh.js: scale does not have 1 or 2 arguments!&quot;),s=new g(1,0,0,1,0,0)),h=h.append(s);break;case&quot;rotate&quot;:if(3===l.length&amp;&amp;(e=new g(1,0,0,1,l[1],l[2]),h=h.append(e)),l[0]){r=l[0]*Math.PI/180;let t=Math.cos(r),e=Math.sin(r);Math.abs(t)&lt;1e-16&amp;&amp;(t=0),Math.abs(e)&lt;1e-16&amp;&amp;(e=0),a=new g(t,e,-e,t,0,0),h=h.append(a)}else console.error(&quot;math.js: No argument to rotate transform!&quot;);3===l.length&amp;&amp;(e=new g(1,0,0,1,-l[1],-l[2]),h=h.append(e));break;case&quot;skewX&quot;:l[0]?(r=l[0]*Math.PI/180,n=Math.tan(r),o=new g(1,0,n,1,0,0),h=h.append(o)):console.error(&quot;math.js: No argument to skewX transform!&quot;);break;case&quot;skewY&quot;:l[0]?(r=l[0]*Math.PI/180,n=Math.tan(r),i=new g(1,n,0,1,0,0),h=h.append(i)):console.error(&quot;math.js: No argument to skewY transform!&quot;);break;case&quot;matrix&quot;:6===l.length?h=h.append(new g(...l)):console.error(&quot;math.js: Incorrect number of arguments for matrix!&quot;);break;default:console.error(&quot;mesh.js: Unhandled transform type: &quot;+d)}}),h},l=t=&gt;{let e=[],s=t.split(/[ ,]+/);for(let t=0,r=s.length-1;t&lt;r;t+=2)e.push(new x(parseFloat(s[t]),parseFloat(s[t+1])));return e},d=(t,e)=&gt;{for(let s in e)t.setAttribute(s,e[s])},c=(t,e,s,r,n)=&gt;{let o,i,a=[0,0,0,0];for(let h=0;h&lt;3;++h)e[h]&lt;t[h]&amp;&amp;e[h]&lt;s[h]||t[h]&lt;e[h]&amp;&amp;s[h]&lt;e[h]?a[h]=0:(a[h]=.5*((e[h]-t[h])/r+(s[h]-e[h])/n),o=Math.abs(3*(e[h]-t[h])/r),i=Math.abs(3*(s[h]-e[h])/n),a[h]&gt;o?a[h]=o:a[h]&gt;i&amp;&amp;(a[h]=i));return a},u=[[1,0,0,0,0,0,0,0,0,0,0,0,0,0,0,0],[0,0,0,0,1,0,0,0,0,0,0,0,0,0,0,0],[-3,3,0,0,-2,-1,0,0,0,0,0,0,0,0,0,0],[2,-2,0,0,1,1,0,0,0,0,0,0,0,0,0,0],[0,0,0,0,0,0,0,0,1,0,0,0,0,0,0,0],[0,0,0,0,0,0,0,0,0,0,0,0,1,0,0,0],[0,0,0,0,0,0,0,0,-3,3,0,0,-2,-1,0,0],[0,0,0,0,0,0,0,0,2,-2,0,0,1,1,0,0],[-3,0,3,0,0,0,0,0,-2,0,-1,0,0,0,0,0],[0,0,0,0,-3,0,3,0,0,0,0,0,-2,0,-1,0],[9,-9,-9,9,6,3,-6,-3,6,-6,3,-3,4,2,2,1],[-6,6,6,-6,-3,-3,3,3,-4,4,-2,2,-2,-2,-1,-1],[2,0,-2,0,0,0,0,0,1,0,1,0,0,0,0,0],[0,0,0,0,2,0,-2,0,0,0,0,0,1,0,1,0],[-6,6,6,-6,-4,-2,4,2,-3,3,-3,3,-2,-1,-2,-1],[4,-4,-4,4,2,2,-2,-2,2,-2,2,-2,1,1,1,1]],f=t=&gt;{let e=[];for(let s=0;s&lt;16;++s){e[s]=0;for(let r=0;r&lt;16;++r)e[s]+=u[s][r]*t[r]}return e},p=(t,e,s)=&gt;{const r=e*e,n=s*s,o=e*e*e,i=s*s*s;return t[0]+t[1]*e+t[2]*r+t[3]*o+t[4]*s+t[5]*s*e+t[6]*s*r+t[7]*s*o+t[8]*n+t[9]*n*e+t[10]*n*r+t[11]*n*o+t[12]*i+t[13]*i*e+t[14]*i*r+t[15]*i*o},y=t=&gt;{let e=[],s=[],r=[];for(let s=0;s&lt;4;++s)e[s]=[],e[s][0]=n(t[0][s],t[1][s],t[2][s],t[3][s]),e[s][1]=[],e[s][1].push(...n(...e[s][0][0])),e[s][1].push(...n(...e[s][0][1])),e[s][2]=[],e[s][2].push(...n(...e[s][1][0])),e[s][2].push(...n(...e[s][1][1])),e[s][2].push(...n(...e[s][1][2])),e[s][2].push(...n(...e[s][1][3]));for(let t=0;t&lt;8;++t){s[t]=[];for(let r=0;r&lt;4;++r)s[t][r]=[],s[t][r][0]=n(e[0][2][t][r],e[1][2][t][r],e[2][2][t][r],e[3][2][t][r]),s[t][r][1]=[],s[t][r][1].push(...n(...s[t][r][0][0])),s[t][r][1].push(...n(...s[t][r][0][1])),s[t][r][2]=[],s[t][r][2].push(...n(...s[t][r][1][0])),s[t][r][2].push(...n(...s[t][r][1][1])),s[t][r][2].push(...n(...s[t][r][1][2])),s[t][r][2].push(...n(...s[t][r][1][3]))}for(let t=0;t&lt;8;++t){r[t]=[];for(let e=0;e&lt;8;++e)r[t][e]=[],r[t][e][0]=s[t][0][2][e],r[t][e][1]=s[t][1][2][e],r[t][e][2]=s[t][2][2][e],r[t][e][3]=s[t][3][2][e]}return r};class x{constructor(t,e){this.x=t||0,this.y=e||0}toString(){return`(x=${this.x}, y=${this.y})`}clone(){return new x(this.x,this.y)}add(t){return new x(this.x+t.x,this.y+t.y)}scale(t){return void 0===t.x?new x(this.x*t,this.y*t):new x(this.x*t.x,this.y*t.y)}distSquared(t){let e=this.x-t.x,s=this.y-t.y;return e*e+s*s}transform(t){let e=this.x*t.a+this.y*t.c+t.e,s=this.x*t.b+this.y*t.d+t.f;return new x(e,s)}}class g{constructor(t,e,s,r,n,o){void 0===t?(this.a=1,this.b=0,this.c=0,this.d=1,this.e=0,this.f=0):(this.a=t,this.b=e,this.c=s,this.d=r,this.e=n,this.f=o)}toString(){return`affine: ${this.a} ${this.c} ${this.e} \n       ${this.b} ${this.d} ${this.f}`}append(t){t instanceof g||console.error(&quot;mesh.js: argument to Affine.append is not affine!&quot;);let e=this.a*t.a+this.c*t.b,s=this.b*t.a+this.d*t.b,r=this.a*t.c+this.c*t.d,n=this.b*t.c+this.d*t.d,o=this.a*t.e+this.c*t.f+this.e,i=this.b*t.e+this.d*t.f+this.f;return new g(e,s,r,n,o,i)}}class w{constructor(t,e){this.nodes=t,this.colors=e}paintCurve(t,e){if(o(this.nodes)&gt;r){const s=n(...this.nodes);let r=[[],[]],o=[[],[]];for(let t=0;t&lt;4;++t)r[0][t]=this.colors[0][t],r[1][t]=(this.colors[0][t]+this.colors[1][t])/2,o[0][t]=r[1][t],o[1][t]=this.colors[1][t];let i=new w(s[0],r),a=new w(s[1],o);i.paintCurve(t,e),a.paintCurve(t,e)}else{let s=Math.round(this.nodes[0].x);if(s&gt;=0&amp;&amp;s&lt;e){let r=4*(~~this.nodes[0].y*e+s);t[r]=Math.round(this.colors[0][0]),t[r+1]=Math.round(this.colors[0][1]),t[r+2]=Math.round(this.colors[0][2]),t[r+3]=Math.round(this.colors[0][3])}}}}class m{constructor(t,e){this.nodes=t,this.colors=e}split(){let t=[[],[],[],[]],e=[[],[],[],[]],s=[[[],[]],[[],[]]],r=[[[],[]],[[],[]]];for(let s=0;s&lt;4;++s){const r=n(this.nodes[0][s],this.nodes[1][s],this.nodes[2][s],this.nodes[3][s]);t[0][s]=r[0][0],t[1][s]=r[0][1],t[2][s]=r[0][2],t[3][s]=r[0][3],e[0][s]=r[1][0],e[1][s]=r[1][1],e[2][s]=r[1][2],e[3][s]=r[1][3]}for(let t=0;t&lt;4;++t)s[0][0][t]=this.colors[0][0][t],s[0][1][t]=this.colors[0][1][t],s[1][0][t]=(this.colors[0][0][t]+this.colors[1][0][t])/2,s[1][1][t]=(this.colors[0][1][t]+this.colors[1][1][t])/2,r[0][0][t]=s[1][0][t],r[0][1][t]=s[1][1][t],r[1][0][t]=this.colors[1][0][t],r[1][1][t]=this.colors[1][1][t];return[new m(t,s),new m(e,r)]}paint(t,e){let s,n=!1;for(let t=0;t&lt;4;++t)if((s=o([this.nodes[0][t],this.nodes[1][t],this.nodes[2][t],this.nodes[3][t]]))&gt;r){n=!0;break}if(n){let s=this.split();s[0].paint(t,e),s[1].paint(t,e)}else{new w([...this.nodes[0]],[...this.colors[0]]).paintCurve(t,e)}}}class b{constructor(t){this.readMesh(t),this.type=t.getAttribute(&quot;type&quot;)||&quot;bilinear&quot;}readMesh(t){let e=[[]],s=[[]],r=Number(t.getAttribute(&quot;x&quot;)),n=Number(t.getAttribute(&quot;y&quot;));e[0][0]=new x(r,n);let o=t.children;for(let t=0,r=o.length;t&lt;r;++t){e[3*t+1]=[],e[3*t+2]=[],e[3*t+3]=[],s[t+1]=[];let r=o[t].children;for(let n=0,o=r.length;n&lt;o;++n){let o=r[n].children;for(let r=0,i=o.length;r&lt;i;++r){let i=r;0!==t&amp;&amp;++i;let h,d=o[r].getAttribute(&quot;path&quot;),c=&quot;l&quot;;null!=d&amp;&amp;(c=(h=d.match(/\s*([lLcC])\s*(.*)/))[1]);let u=l(h[2]);switch(c){case&quot;l&quot;:0===i?(e[3*t][3*n+3]=u[0].add(e[3*t][3*n]),e[3*t][3*n+1]=a(e[3*t][3*n],e[3*t][3*n+3]),e[3*t][3*n+2]=a(e[3*t][3*n+3],e[3*t][3*n])):1===i?(e[3*t+3][3*n+3]=u[0].add(e[3*t][3*n+3]),e[3*t+1][3*n+3]=a(e[3*t][3*n+3],e[3*t+3][3*n+3]),e[3*t+2][3*n+3]=a(e[3*t+3][3*n+3],e[3*t][3*n+3])):2===i?(0===n&amp;&amp;(e[3*t+3][3*n+0]=u[0].add(e[3*t+3][3*n+3])),e[3*t+3][3*n+1]=a(e[3*t+3][3*n],e[3*t+3][3*n+3]),e[3*t+3][3*n+2]=a(e[3*t+3][3*n+3],e[3*t+3][3*n])):(e[3*t+1][3*n]=a(e[3*t][3*n],e[3*t+3][3*n]),e[3*t+2][3*n]=a(e[3*t+3][3*n],e[3*t][3*n]));break;case&quot;L&quot;:0===i?(e[3*t][3*n+3]=u[0],e[3*t][3*n+1]=a(e[3*t][3*n],e[3*t][3*n+3]),e[3*t][3*n+2]=a(e[3*t][3*n+3],e[3*t][3*n])):1===i?(e[3*t+3][3*n+3]=u[0],e[3*t+1][3*n+3]=a(e[3*t][3*n+3],e[3*t+3][3*n+3]),e[3*t+2][3*n+3]=a(e[3*t+3][3*n+3],e[3*t][3*n+3])):2===i?(0===n&amp;&amp;(e[3*t+3][3*n+0]=u[0]),e[3*t+3][3*n+1]=a(e[3*t+3][3*n],e[3*t+3][3*n+3]),e[3*t+3][3*n+2]=a(e[3*t+3][3*n+3],e[3*t+3][3*n])):(e[3*t+1][3*n]=a(e[3*t][3*n],e[3*t+3][3*n]),e[3*t+2][3*n]=a(e[3*t+3][3*n],e[3*t][3*n]));break;case&quot;c&quot;:0===i?(e[3*t][3*n+1]=u[0].add(e[3*t][3*n]),e[3*t][3*n+2]=u[1].add(e[3*t][3*n]),e[3*t][3*n+3]=u[2].add(e[3*t][3*n])):1===i?(e[3*t+1][3*n+3]=u[0].add(e[3*t][3*n+3]),e[3*t+2][3*n+3]=u[1].add(e[3*t][3*n+3]),e[3*t+3][3*n+3]=u[2].add(e[3*t][3*n+3])):2===i?(e[3*t+3][3*n+2]=u[0].add(e[3*t+3][3*n+3]),e[3*t+3][3*n+1]=u[1].add(e[3*t+3][3*n+3]),0===n&amp;&amp;(e[3*t+3][3*n+0]=u[2].add(e[3*t+3][3*n+3]))):(e[3*t+2][3*n]=u[0].add(e[3*t+3][3*n]),e[3*t+1][3*n]=u[1].add(e[3*t+3][3*n]));break;case&quot;C&quot;:0===i?(e[3*t][3*n+1]=u[0],e[3*t][3*n+2]=u[1],e[3*t][3*n+3]=u[2]):1===i?(e[3*t+1][3*n+3]=u[0],e[3*t+2][3*n+3]=u[1],e[3*t+3][3*n+3]=u[2]):2===i?(e[3*t+3][3*n+2]=u[0],e[3*t+3][3*n+1]=u[1],0===n&amp;&amp;(e[3*t+3][3*n+0]=u[2])):(e[3*t+2][3*n]=u[0],e[3*t+1][3*n]=u[1]);break;default:console.error(&quot;mesh.js: &quot;+c+&quot; invalid path type.&quot;)}if(0===t&amp;&amp;0===n||r&gt;0){let e=window.getComputedStyle(o[r]).stopColor.match(/^rgb\s*\(\s*(\d+)\s*,\s*(\d+)\s*,\s*(\d+)\s*\)$/i),a=window.getComputedStyle(o[r]).stopOpacity,h=255;a&amp;&amp;(h=Math.floor(255*a)),e&amp;&amp;(0===i?(s[t][n]=[],s[t][n][0]=Math.floor(e[1]),s[t][n][1]=Math.floor(e[2]),s[t][n][2]=Math.floor(e[3]),s[t][n][3]=h):1===i?(s[t][n+1]=[],s[t][n+1][0]=Math.floor(e[1]),s[t][n+1][1]=Math.floor(e[2]),s[t][n+1][2]=Math.floor(e[3]),s[t][n+1][3]=h):2===i?(s[t+1][n+1]=[],s[t+1][n+1][0]=Math.floor(e[1]),s[t+1][n+1][1]=Math.floor(e[2]),s[t+1][n+1][2]=Math.floor(e[3]),s[t+1][n+1][3]=h):3===i&amp;&amp;(s[t+1][n]=[],s[t+1][n][0]=Math.floor(e[1]),s[t+1][n][1]=Math.floor(e[2]),s[t+1][n][2]=Math.floor(e[3]),s[t+1][n][3]=h))}}e[3*t+1][3*n+1]=new x,e[3*t+1][3*n+2]=new x,e[3*t+2][3*n+1]=new x,e[3*t+2][3*n+2]=new x,e[3*t+1][3*n+1].x=(-4*e[3*t][3*n].x+6*(e[3*t][3*n+1].x+e[3*t+1][3*n].x)+-2*(e[3*t][3*n+3].x+e[3*t+3][3*n].x)+3*(e[3*t+3][3*n+1].x+e[3*t+1][3*n+3].x)+-1*e[3*t+3][3*n+3].x)/9,e[3*t+1][3*n+2].x=(-4*e[3*t][3*n+3].x+6*(e[3*t][3*n+2].x+e[3*t+1][3*n+3].x)+-2*(e[3*t][3*n].x+e[3*t+3][3*n+3].x)+3*(e[3*t+3][3*n+2].x+e[3*t+1][3*n].x)+-1*e[3*t+3][3*n].x)/9,e[3*t+2][3*n+1].x=(-4*e[3*t+3][3*n].x+6*(e[3*t+3][3*n+1].x+e[3*t+2][3*n].x)+-2*(e[3*t+3][3*n+3].x+e[3*t][3*n].x)+3*(e[3*t][3*n+1].x+e[3*t+2][3*n+3].x)+-1*e[3*t][3*n+3].x)/9,e[3*t+2][3*n+2].x=(-4*e[3*t+3][3*n+3].x+6*(e[3*t+3][3*n+2].x+e[3*t+2][3*n+3].x)+-2*(e[3*t+3][3*n].x+e[3*t][3*n+3].x)+3*(e[3*t][3*n+2].x+e[3*t+2][3*n].x)+-1*e[3*t][3*n].x)/9,e[3*t+1][3*n+1].y=(-4*e[3*t][3*n].y+6*(e[3*t][3*n+1].y+e[3*t+1][3*n].y)+-2*(e[3*t][3*n+3].y+e[3*t+3][3*n].y)+3*(e[3*t+3][3*n+1].y+e[3*t+1][3*n+3].y)+-1*e[3*t+3][3*n+3].y)/9,e[3*t+1][3*n+2].y=(-4*e[3*t][3*n+3].y+6*(e[3*t][3*n+2].y+e[3*t+1][3*n+3].y)+-2*(e[3*t][3*n].y+e[3*t+3][3*n+3].y)+3*(e[3*t+3][3*n+2].y+e[3*t+1][3*n].y)+-1*e[3*t+3][3*n].y)/9,e[3*t+2][3*n+1].y=(-4*e[3*t+3][3*n].y+6*(e[3*t+3][3*n+1].y+e[3*t+2][3*n].y)+-2*(e[3*t+3][3*n+3].y+e[3*t][3*n].y)+3*(e[3*t][3*n+1].y+e[3*t+2][3*n+3].y)+-1*e[3*t][3*n+3].y)/9,e[3*t+2][3*n+2].y=(-4*e[3*t+3][3*n+3].y+6*(e[3*t+3][3*n+2].y+e[3*t+2][3*n+3].y)+-2*(e[3*t+3][3*n].y+e[3*t][3*n+3].y)+3*(e[3*t][3*n+2].y+e[3*t+2][3*n].y)+-1*e[3*t][3*n].y)/9}}this.nodes=e,this.colors=s}paintMesh(t,e){let s=(this.nodes.length-1)/3,r=(this.nodes[0].length-1)/3;if(&quot;bilinear&quot;===this.type||s&lt;2||r&lt;2){let n;for(let o=0;o&lt;s;++o)for(let s=0;s&lt;r;++s){let r=[];for(let t=3*o,e=3*o+4;t&lt;e;++t)r.push(this.nodes[t].slice(3*s,3*s+4));let i=[];i.push(this.colors[o].slice(s,s+2)),i.push(this.colors[o+1].slice(s,s+2)),(n=new m(r,i)).paint(t,e)}}else{let n,o,a,h,l,d,u;const x=s,g=r;s++,r++;let w=new Array(s);for(let t=0;t&lt;s;++t){w[t]=new Array(r);for(let e=0;e&lt;r;++e)w[t][e]=[],w[t][e][0]=this.nodes[3*t][3*e],w[t][e][1]=this.colors[t][e]}for(let t=0;t&lt;s;++t)for(let e=0;e&lt;r;++e)0!==t&amp;&amp;t!==x&amp;&amp;(n=i(w[t-1][e][0],w[t][e][0]),o=i(w[t+1][e][0],w[t][e][0]),w[t][e][2]=c(w[t-1][e][1],w[t][e][1],w[t+1][e][1],n,o)),0!==e&amp;&amp;e!==g&amp;&amp;(n=i(w[t][e-1][0],w[t][e][0]),o=i(w[t][e+1][0],w[t][e][0]),w[t][e][3]=c(w[t][e-1][1],w[t][e][1],w[t][e+1][1],n,o));for(let t=0;t&lt;r;++t){w[0][t][2]=[],w[x][t][2]=[];for(let e=0;e&lt;4;++e)n=i(w[1][t][0],w[0][t][0]),o=i(w[x][t][0],w[x-1][t][0]),w[0][t][2][e]=n&gt;0?2*(w[1][t][1][e]-w[0][t][1][e])/n-w[1][t][2][e]:0,w[x][t][2][e]=o&gt;0?2*(w[x][t][1][e]-w[x-1][t][1][e])/o-w[x-1][t][2][e]:0}for(let t=0;t&lt;s;++t){w[t][0][3]=[],w[t][g][3]=[];for(let e=0;e&lt;4;++e)n=i(w[t][1][0],w[t][0][0]),o=i(w[t][g][0],w[t][g-1][0]),w[t][0][3][e]=n&gt;0?2*(w[t][1][1][e]-w[t][0][1][e])/n-w[t][1][3][e]:0,w[t][g][3][e]=o&gt;0?2*(w[t][g][1][e]-w[t][g-1][1][e])/o-w[t][g-1][3][e]:0}for(let s=0;s&lt;x;++s)for(let r=0;r&lt;g;++r){let n=i(w[s][r][0],w[s+1][r][0]),o=i(w[s][r+1][0],w[s+1][r+1][0]),c=i(w[s][r][0],w[s][r+1][0]),x=i(w[s+1][r][0],w[s+1][r+1][0]),g=[[],[],[],[]];for(let t=0;t&lt;4;++t){(d=[])[0]=w[s][r][1][t],d[1]=w[s+1][r][1][t],d[2]=w[s][r+1][1][t],d[3]=w[s+1][r+1][1][t],d[4]=w[s][r][2][t]*n,d[5]=w[s+1][r][2][t]*n,d[6]=w[s][r+1][2][t]*o,d[7]=w[s+1][r+1][2][t]*o,d[8]=w[s][r][3][t]*c,d[9]=w[s+1][r][3][t]*x,d[10]=w[s][r+1][3][t]*c,d[11]=w[s+1][r+1][3][t]*x,d[12]=0,d[13]=0,d[14]=0,d[15]=0,u=f(d);for(let e=0;e&lt;9;++e){g[t][e]=[];for(let s=0;s&lt;9;++s)g[t][e][s]=p(u,e/8,s/8),g[t][e][s]&gt;255?g[t][e][s]=255:g[t][e][s]&lt;0&amp;&amp;(g[t][e][s]=0)}}h=[];for(let t=3*s,e=3*s+4;t&lt;e;++t)h.push(this.nodes[t].slice(3*r,3*r+4));l=y(h);for(let s=0;s&lt;8;++s)for(let r=0;r&lt;8;++r)(a=new m(l[s][r],[[[g[0][s][r],g[1][s][r],g[2][s][r],g[3][s][r]],[g[0][s][r+1],g[1][s][r+1],g[2][s][r+1],g[3][s][r+1]]],[[g[0][s+1][r],g[1][s+1][r],g[2][s+1][r],g[3][s+1][r]],[g[0][s+1][r+1],g[1][s+1][r+1],g[2][s+1][r+1],g[3][s+1][r+1]]]])).paint(t,e)}}}transform(t){if(t instanceof x)for(let e=0,s=this.nodes.length;e&lt;s;++e)for(let s=0,r=this.nodes[0].length;s&lt;r;++s)this.nodes[e][s]=this.nodes[e][s].add(t);else if(t instanceof g)for(let e=0,s=this.nodes.length;e&lt;s;++e)for(let s=0,r=this.nodes[0].length;s&lt;r;++s)this.nodes[e][s]=this.nodes[e][s].transform(t)}scale(t){for(let e=0,s=this.nodes.length;e&lt;s;++e)for(let s=0,r=this.nodes[0].length;s&lt;r;++s)this.nodes[e][s]=this.nodes[e][s].scale(t)}}document.querySelectorAll(&quot;rect,circle,ellipse,path,text&quot;).forEach((r,n)=&gt;{let o=r.getAttribute(&quot;id&quot;);o||(o=&quot;patchjs_shape&quot;+n,r.setAttribute(&quot;id&quot;,o));const i=r.style.fill.match(/^url\(\s*&quot;?\s*#([^\s&quot;]+)&quot;?\s*\)/),a=r.style.stroke.match(/^url\(\s*&quot;?\s*#([^\s&quot;]+)&quot;?\s*\)/);if(i&amp;&amp;i[1]){const a=document.getElementById(i[1]);if(a&amp;&amp;&quot;meshgradient&quot;===a.nodeName){const i=r.getBBox();let l=document.createElementNS(s,&quot;canvas&quot;);d(l,{width:i.width,height:i.height});const c=l.getContext(&quot;2d&quot;);let u=c.createImageData(i.width,i.height);const f=new b(a);&quot;objectBoundingBox&quot;===a.getAttribute(&quot;gradientUnits&quot;)&amp;&amp;f.scale(new x(i.width,i.height));const p=a.getAttribute(&quot;gradientTransform&quot;);null!=p&amp;&amp;f.transform(h(p)),&quot;userSpaceOnUse&quot;===a.getAttribute(&quot;gradientUnits&quot;)&amp;&amp;f.transform(new x(-i.x,-i.y)),f.paintMesh(u.data,l.width),c.putImageData(u,0,0);const y=document.createElementNS(t,&quot;image&quot;);d(y,{width:i.width,height:i.height,x:i.x,y:i.y});let g=l.toDataURL();y.setAttributeNS(e,&quot;xlink:href&quot;,g),r.parentNode.insertBefore(y,r),r.style.fill=&quot;none&quot;;const w=document.createElementNS(t,&quot;use&quot;);w.setAttributeNS(e,&quot;xlink:href&quot;,&quot;#&quot;+o);const m=&quot;patchjs_clip&quot;+n,M=document.createElementNS(t,&quot;clipPath&quot;);M.setAttribute(&quot;id&quot;,m),M.appendChild(w),r.parentElement.insertBefore(M,r),y.setAttribute(&quot;clip-path&quot;,&quot;url(#&quot;+m+&quot;)&quot;),u=null,l=null,g=null}}if(a&amp;&amp;a[1]){const o=document.getElementById(a[1]);if(o&amp;&amp;&quot;meshgradient&quot;===o.nodeName){const i=parseFloat(r.style.strokeWidth.slice(0,-2))*(parseFloat(r.style.strokeMiterlimit)||parseFloat(r.getAttribute(&quot;stroke-miterlimit&quot;))||1),a=r.getBBox(),l=Math.trunc(a.width+i),c=Math.trunc(a.height+i),u=Math.trunc(a.x-i/2),f=Math.trunc(a.y-i/2);let p=document.createElementNS(s,&quot;canvas&quot;);d(p,{width:l,height:c});const y=p.getContext(&quot;2d&quot;);let g=y.createImageData(l,c);const w=new b(o);&quot;objectBoundingBox&quot;===o.getAttribute(&quot;gradientUnits&quot;)&amp;&amp;w.scale(new x(l,c));const m=o.getAttribute(&quot;gradientTransform&quot;);null!=m&amp;&amp;w.transform(h(m)),&quot;userSpaceOnUse&quot;===o.getAttribute(&quot;gradientUnits&quot;)&amp;&amp;w.transform(new x(-u,-f)),w.paintMesh(g.data,p.width),y.putImageData(g,0,0);const M=document.createElementNS(t,&quot;image&quot;);d(M,{width:l,height:c,x:0,y:0});let S=p.toDataURL();M.setAttributeNS(e,&quot;xlink:href&quot;,S);const k=&quot;pattern_clip&quot;+n,A=document.createElementNS(t,&quot;pattern&quot;);d(A,{id:k,patternUnits:&quot;userSpaceOnUse&quot;,width:l,height:c,x:u,y:f}),A.appendChild(M),o.parentNode.appendChild(A),r.style.stroke=&quot;url(#&quot;+k+&quot;)&quot;,g=null,p=null,S=null}}})}();
</script>
</svg>
